if (_typeface_js && _typeface_js.loadFace) _typeface_js.loadFace({"glyphs":{"S":{"x_min":27.8125,"x_max":836.25,"ha":642,"o":"m 358 -50 q 335 -46 345 -50 q 317 -37 324 -42 q 306 -25 310 -31 q 302 -13 302 -18 q 305 -2 302 -8 q 313 10 308 4 q 321 21 317 16 q 328 25 326 25 q 333 22 332 25 q 334 17 333 20 q 335 10 334 14 q 339 5 335 7 q 357 -1 346 1 q 392 -4 367 -4 q 450 5 423 -4 q 498 32 478 15 q 531 71 519 48 q 543 119 543 93 q 521 175 543 154 q 462 209 499 196 q 380 231 426 223 q 285 249 333 239 q 190 274 237 259 q 108 316 144 289 q 49 383 71 342 q 27 487 27 425 q 56 620 27 557 q 132 738 84 684 q 243 836 181 792 q 373 910 305 879 q 510 957 441 940 q 638 973 579 973 q 785 939 735 973 q 836 837 836 905 q 822 779 836 807 q 790 729 807 751 q 756 692 772 707 q 737 674 740 678 l 733 680 q 745 693 733 681 q 769 725 756 706 q 793 767 782 744 q 804 813 804 790 q 758 895 804 868 q 626 922 713 922 q 459 901 537 922 q 318 845 382 880 q 204 765 254 810 q 120 671 154 719 q 68 575 86 623 q 50 489 50 528 q 72 402 50 436 q 131 347 94 368 q 214 314 168 326 q 309 294 261 303 q 405 276 358 285 q 488 251 451 267 q 547 209 524 235 q 569 140 569 183 q 557 71 569 101 q 524 21 544 42 q 481 -13 505 0 q 433 -35 457 -27 q 389 -46 409 -43 q 358 -50 369 -50 "},"/":{"x_min":63.71875,"x_max":463.90625,"ha":423,"o":"m 425 919 q 428 922 425 921 q 435 924 431 923 q 443 926 439 925 q 450 926 447 926 q 459 924 455 926 q 463 918 463 922 q 463 916 463 917 q 463 915 463 916 q 462 914 462 914 q 362 661 408 779 q 272 432 316 543 q 186 213 229 321 q 98 -9 144 105 q 84 -23 96 -23 q 68 -18 76 -23 q 65 -2 61 -13 q 155 223 113 113 q 240 446 198 334 q 327 675 282 558 q 425 919 372 792 "},"K":{"x_min":0,"x_max":1047.171875,"ha":575,"o":"m 124 1 q 125 -8 124 -2 q 126 -19 126 -14 q 122 -28 125 -24 q 112 -31 120 -31 q 95 -27 101 -31 q 88 -12 90 -23 q 84 34 86 9 q 79 84 81 59 q 53 63 64 67 q 34 59 43 59 q 9 69 18 59 q 0 92 0 78 q 6 114 0 104 q 23 132 12 124 q 47 144 33 139 q 73 148 60 148 q 64 296 68 218 q 61 458 61 374 q 61 560 61 512 q 62 661 61 609 q 67 775 63 714 q 76 918 70 837 q 78 933 78 925 q 79 943 79 942 q 78 954 79 948 q 83 959 78 959 q 94 957 86 959 q 109 953 101 956 q 122 948 116 951 q 127 942 127 944 q 116 773 120 845 q 110 644 112 700 q 107 544 108 588 q 107 462 107 501 q 107 397 107 433 q 108 322 107 362 q 110 242 109 283 q 113 160 111 200 q 180 261 143 201 q 263 392 218 321 q 359 538 308 462 q 465 687 410 614 q 578 826 520 760 q 695 941 636 891 q 813 1020 754 991 q 929 1049 872 1049 q 979 1041 957 1049 q 1016 1017 1001 1032 q 1039 983 1031 1003 q 1047 942 1047 963 q 1035 883 1047 911 q 1009 831 1024 854 q 981 793 994 808 q 965 776 968 779 l 956 781 q 972 800 963 790 q 988 825 980 810 q 1000 862 995 841 q 1005 914 1005 883 q 999 948 1005 932 q 981 977 992 965 q 953 996 969 989 q 915 1003 936 1003 q 811 975 865 1003 q 702 902 757 948 q 592 794 647 855 q 483 662 537 732 q 379 520 430 593 q 282 378 328 446 q 196 248 236 309 q 123 141 155 187 q 181 117 153 133 q 233 82 208 101 q 283 43 259 63 q 331 7 307 23 q 382 -18 356 -8 q 436 -29 407 -29 q 478 -20 461 -29 q 506 2 495 -10 q 525 31 518 15 q 537 59 532 46 l 547 55 q 539 35 543 47 q 528 9 535 23 q 511 -18 520 -4 q 488 -43 501 -32 q 457 -62 474 -54 q 417 -69 440 -69 q 355 -58 384 -69 q 300 -31 326 -48 q 250 6 274 -14 q 204 47 226 27 q 160 85 181 67 q 116 113 138 103 q 119 54 118 83 q 124 1 121 26 m 42 92 q 60 97 51 92 q 78 112 68 101 q 76 118 76 115 q 76 124 76 121 q 72 125 74 124 q 67 126 69 126 q 36 118 44 126 q 29 104 29 110 q 42 92 29 92 "},"7":{"x_min":31.875,"x_max":687.71875,"ha":604,"o":"m 41 711 q 34 729 37 719 q 31 750 31 739 q 38 785 31 767 q 57 818 44 803 q 91 842 71 832 q 137 851 111 851 q 235 843 189 851 q 327 825 281 835 q 422 808 373 815 q 530 800 472 800 q 601 855 568 835 q 659 874 634 874 q 679 867 671 874 q 687 847 687 860 q 671 814 687 828 q 631 789 655 799 q 575 772 606 779 q 514 763 544 766 q 441 664 478 722 q 372 538 405 606 q 309 396 339 470 q 259 249 280 322 q 224 107 237 176 q 210 -18 212 38 l 210 -21 q 206 -31 210 -26 q 194 -39 201 -35 q 180 -45 188 -42 q 166 -47 172 -47 q 152 -37 152 -47 q 179 121 160 42 q 223 275 197 200 q 281 420 249 349 q 349 553 314 491 q 422 668 385 615 q 495 762 459 721 l 478 762 q 383 770 430 762 q 288 788 335 778 q 194 807 241 798 q 103 815 148 815 q 76 809 88 815 q 57 794 65 803 q 46 773 50 785 q 42 750 42 762 q 44 733 42 741 q 50 718 46 725 l 41 711 m 638 844 q 595 832 617 844 q 548 800 572 821 q 586 802 567 800 q 619 808 604 804 q 642 819 634 812 q 651 836 651 826 q 647 842 651 840 q 638 844 642 844 "},"d":{"x_min":2.71875,"x_max":450.34375,"ha":408,"o":"m 200 293 q 197 333 198 312 q 197 377 197 354 q 199 480 197 426 q 207 586 202 534 q 219 686 212 638 q 238 769 227 733 q 262 827 248 805 q 293 848 276 848 q 330 803 318 848 q 343 662 343 757 q 336 538 343 607 q 311 397 328 469 q 283 289 296 335 q 258 208 269 242 q 273 146 264 175 q 294 95 282 117 q 320 61 305 73 q 351 48 334 48 q 379 60 365 48 q 406 87 394 71 q 428 119 419 103 q 444 145 438 135 l 450 143 q 446 133 450 143 q 436 109 443 124 q 420 78 430 94 q 398 46 410 61 q 370 22 385 31 q 339 12 356 12 q 274 43 302 12 q 227 133 246 74 q 204 91 218 111 q 172 54 189 70 q 133 29 154 38 q 88 19 111 19 q 55 25 71 19 q 27 43 39 31 q 9 71 16 55 q 2 108 2 88 q 18 176 2 143 q 60 235 33 208 q 121 277 86 261 q 193 293 155 293 l 200 293 m 280 816 q 267 797 273 816 q 257 746 261 777 q 248 672 252 714 q 243 588 245 631 q 239 502 240 544 q 238 425 238 459 q 242 338 238 385 q 252 244 245 290 q 274 317 263 276 q 293 405 284 358 q 307 505 301 453 q 312 615 312 558 q 310 699 312 661 q 304 762 308 736 q 295 802 301 788 q 280 816 288 816 m 115 61 q 152 70 136 61 q 181 93 168 79 q 204 124 194 107 q 221 156 213 141 q 210 207 214 181 q 202 262 206 233 q 180 266 192 266 q 119 255 145 266 q 77 226 94 244 q 53 187 61 208 q 46 144 46 165 q 65 84 46 108 q 115 61 84 61 "},",":{"x_min":49.84375,"x_max":127.5,"ha":182,"o":"m 92 104 q 119 89 110 104 q 127 55 127 75 q 125 30 127 45 q 117 -1 124 15 q 96 -35 110 -17 q 59 -71 83 -54 q 53 -74 55 -75 q 50 -72 50 -74 q 50 -67 49 -70 q 52 -63 50 -65 q 71 -44 63 -57 q 86 -16 80 -30 q 92 8 92 -2 q 87 21 93 19 q 64 34 72 24 q 55 59 55 44 q 66 92 55 81 q 92 104 77 104 "},"Y":{"x_min":0,"x_max":1062.78125,"ha":534,"o":"m 137 548 q 96 556 120 550 q 51 577 72 562 q 14 616 29 592 q 0 680 0 641 q 14 744 0 716 q 52 789 29 771 q 106 816 76 807 q 166 825 136 825 q 252 808 215 825 q 316 760 289 790 q 360 691 343 731 q 388 608 378 652 q 404 518 399 564 q 409 429 408 472 q 450 565 425 495 q 506 703 474 636 q 579 831 539 770 q 671 937 620 891 q 781 1009 721 982 q 912 1036 842 1036 q 967 1028 940 1036 q 1015 1003 994 1020 q 1049 963 1037 987 q 1062 906 1062 939 q 1046 833 1062 866 q 1009 775 1030 800 q 965 735 987 751 q 930 711 942 718 l 925 718 q 953 739 936 726 q 985 771 969 752 q 1011 819 1000 791 q 1022 885 1022 847 q 1015 924 1022 904 q 993 960 1008 944 q 956 985 979 975 q 904 995 934 995 q 770 967 831 995 q 660 890 710 938 q 570 777 610 842 q 500 641 531 713 q 446 494 469 569 q 408 348 423 419 q 404 247 406 300 q 399 145 402 195 q 392 53 396 96 q 383 -18 387 10 q 377 -31 382 -25 q 365 -40 372 -36 q 351 -46 358 -44 q 340 -48 344 -48 q 332 -45 336 -48 q 328 -37 328 -42 q 336 15 331 -16 q 345 85 340 47 q 354 164 349 122 q 363 246 359 205 q 369 325 367 287 q 372 393 372 362 q 369 475 372 431 q 358 563 366 519 q 335 647 350 607 q 296 719 320 688 q 237 768 271 750 q 153 787 202 787 q 106 780 129 787 q 66 758 84 773 q 39 723 49 744 q 29 673 29 701 q 40 622 29 642 q 67 588 50 602 q 103 567 84 575 q 140 555 122 559 l 137 548 "},"E":{"x_min":0,"x_max":844.390625,"ha":720,"o":"m 771 202 q 747 168 763 191 q 708 117 731 145 q 655 60 685 89 q 589 6 625 30 q 512 -33 553 -17 q 427 -48 472 -48 q 319 -9 358 -48 q 278 107 279 29 q 160 145 211 115 q 72 219 108 174 q 18 323 37 264 q 0 450 0 381 q 24 595 0 524 q 93 730 49 666 q 196 847 137 794 q 324 940 255 901 q 470 1001 394 979 q 623 1023 546 1023 q 694 1015 656 1023 q 766 989 733 1007 q 822 939 799 970 q 844 861 844 908 q 822 781 844 825 q 752 697 799 737 l 747 702 q 792 771 779 736 q 805 845 805 805 q 786 908 805 883 q 738 949 767 933 q 677 971 710 965 q 616 978 644 978 q 467 959 541 978 q 329 906 394 940 q 207 825 263 872 q 111 720 151 777 q 48 596 71 662 q 25 458 25 529 q 44 350 25 402 q 98 258 63 299 q 180 188 132 217 q 282 148 227 159 q 304 204 288 178 q 340 251 319 231 q 386 282 360 271 q 438 294 411 294 q 488 278 468 294 q 508 227 508 262 q 492 170 508 194 q 450 132 476 147 q 394 110 425 117 q 335 103 364 103 q 318 103 326 103 q 302 104 309 103 q 316 60 304 80 q 345 26 327 40 q 386 4 363 12 q 434 -2 409 -2 q 609 50 524 -2 q 762 208 693 104 l 771 202 m 436 258 q 385 249 407 258 q 346 225 362 240 q 320 189 330 210 q 305 144 309 168 q 324 143 315 143 q 343 143 333 143 q 392 147 366 143 q 438 161 417 151 q 473 186 459 171 q 487 221 487 200 q 482 238 487 231 q 470 249 478 244 q 454 256 463 254 q 436 258 444 258 "},"y":{"x_min":-33.234375,"x_max":258.40625,"ha":311,"o":"m -33 -536 q -17 -476 -33 -496 q 23 -457 -1 -457 q 42 -462 35 -457 q 48 -474 48 -467 q 44 -479 48 -479 q 39 -477 42 -479 q 30 -476 35 -476 q 15 -483 23 -476 q 8 -510 8 -490 q 14 -557 8 -533 q 33 -602 21 -582 q 65 -636 46 -623 q 108 -649 84 -649 q 145 -635 129 -649 q 173 -595 162 -620 q 192 -535 185 -569 q 205 -460 200 -500 q 211 -377 209 -421 q 213 -291 213 -334 q 212 -215 213 -249 q 211 -150 212 -181 q 208 -91 210 -120 q 206 -30 207 -62 q 204 36 205 0 q 204 118 204 73 l 204 176 q 180 117 194 147 q 149 61 166 86 q 113 20 132 36 q 75 4 94 4 q 30 21 43 4 q 16 73 16 39 q 18 105 16 84 q 23 150 21 126 q 28 194 26 173 q 30 225 30 215 q 19 254 30 254 q 17 253 18 254 q 15 253 16 253 q 13 252 14 252 q 9 258 9 252 q 19 265 9 260 q 48 270 29 270 q 61 267 57 270 q 67 257 65 263 q 69 242 69 250 q 69 222 69 233 q 67 192 69 212 q 63 148 65 171 q 60 106 61 126 q 58 78 58 86 q 66 41 58 51 q 90 30 75 30 q 114 43 101 30 q 140 75 128 55 q 164 121 153 96 q 185 172 175 147 q 200 222 194 198 q 208 261 206 245 l 208 262 l 208 267 q 212 282 208 276 q 223 291 217 288 q 237 296 229 295 q 250 298 244 298 q 255 295 254 298 q 255 291 255 293 q 252 242 255 289 q 248 111 248 196 q 249 23 248 59 q 251 -41 250 -12 q 253 -92 252 -69 q 256 -141 255 -115 q 257 -197 257 -166 q 258 -270 258 -227 q 243 -450 258 -373 q 204 -578 229 -526 q 149 -655 180 -629 q 84 -680 118 -680 q 40 -669 61 -680 q 2 -638 18 -657 q -23 -592 -13 -618 q -33 -536 -33 -566 "},"\"":{"x_min":69.171875,"x_max":210.921875,"ha":281,"o":"m 112 663 q 102 655 112 658 q 84 651 92 651 q 73 657 73 651 q 71 732 73 697 q 69 807 69 767 q 70 848 69 826 q 73 889 71 869 q 77 895 73 891 q 87 901 82 898 q 99 906 92 904 q 109 908 105 908 q 113 905 113 908 q 109 811 109 859 q 111 735 109 770 q 112 663 112 699 m 209 663 q 200 655 209 658 q 181 651 190 651 q 170 657 170 651 q 168 732 170 697 q 166 807 166 767 q 167 848 166 826 q 170 889 168 869 q 174 895 170 891 q 184 901 179 898 q 196 906 190 904 q 206 908 202 908 q 210 905 210 908 q 206 811 206 859 q 208 735 206 770 q 209 663 209 699 "},"g":{"x_min":10.859375,"x_max":315.375,"ha":350,"o":"m 238 298 q 270 295 257 298 q 290 288 283 293 q 301 279 298 284 q 304 269 304 274 q 297 252 304 261 q 284 242 290 242 q 277 245 282 242 q 264 249 273 247 q 243 254 256 252 q 212 257 231 257 q 91 222 134 257 q 48 128 48 188 q 53 106 48 118 q 66 84 57 94 q 90 66 75 73 q 126 59 105 59 q 194 74 166 59 q 241 108 222 89 q 242 114 241 111 q 244 120 242 117 q 256 163 248 143 q 273 198 264 183 q 290 221 282 212 q 305 229 299 229 q 314 224 313 229 q 315 216 315 219 q 301 176 315 204 q 263 116 287 147 q 252 34 258 84 q 242 -78 247 -14 q 235 -218 238 -142 q 231 -380 231 -295 q 234 -517 231 -451 q 240 -634 237 -583 q 246 -717 243 -685 q 248 -751 248 -748 q 247 -766 248 -760 q 240 -776 245 -771 q 230 -785 236 -780 q 218 -790 224 -790 q 206 -784 210 -790 q 198 -765 202 -779 q 189 -715 193 -750 q 183 -619 185 -680 q 180 -462 180 -559 q 185 -297 180 -377 q 199 -147 191 -217 q 218 -17 208 -77 q 237 86 228 41 q 174 37 208 57 q 101 18 140 18 q 67 23 84 18 q 38 39 50 28 q 18 66 25 50 q 10 104 10 82 q 27 167 10 133 q 74 230 44 202 q 146 279 104 259 q 238 298 188 298 m 276 168 q 271 158 274 164 q 267 141 269 151 q 272 147 270 145 q 276 151 274 149 q 278 156 277 154 q 282 171 280 166 q 282 176 283 176 q 276 168 282 177 "},"e":{"x_min":13.5625,"x_max":344.53125,"ha":302,"o":"m 215 335 q 223 323 223 333 q 222 316 223 320 q 218 307 220 311 q 212 300 215 303 q 208 297 210 297 q 200 299 204 297 q 186 304 195 301 q 163 310 177 307 q 126 312 149 312 q 71 300 93 312 q 50 266 50 288 q 63 240 50 250 q 94 223 76 229 q 131 214 112 217 q 160 212 149 212 q 169 209 167 212 q 172 205 172 207 q 167 199 172 200 q 156 196 163 198 q 120 180 139 189 q 87 159 102 171 q 62 130 71 146 q 52 96 52 115 q 77 46 52 66 q 147 26 102 26 q 231 41 198 26 q 287 77 265 56 q 322 118 309 97 q 340 149 334 139 l 344 147 q 315 85 333 113 q 271 36 297 56 q 212 3 246 15 q 134 -8 178 -8 q 86 -1 108 -8 q 47 16 63 4 q 22 44 31 27 q 13 83 13 61 q 25 126 13 108 q 51 157 36 145 q 81 175 66 168 q 101 184 95 181 q 64 196 80 187 q 39 216 50 203 q 27 252 27 229 q 37 291 27 274 q 65 320 48 308 q 105 338 82 331 q 153 344 128 344 q 184 342 168 344 q 215 335 199 340 "},"J":{"x_min":0,"x_max":630.75,"ha":547,"o":"m 55 -62 q 68 -105 59 -83 q 92 -144 77 -126 q 131 -174 108 -162 q 187 -185 155 -185 q 268 -155 236 -185 q 323 -74 301 -126 q 356 45 344 -23 q 376 193 368 114 q 323 179 351 184 q 265 173 295 173 q 159 189 208 173 q 75 235 110 204 q 20 310 40 265 q 0 412 0 354 q 21 530 0 477 q 76 624 42 582 q 157 700 111 667 q 252 759 203 733 q 352 806 302 786 q 445 844 402 826 q 499 942 466 906 q 585 979 533 979 q 598 978 591 979 q 613 972 606 976 q 625 959 620 967 q 630 937 630 950 q 617 897 630 914 q 582 865 604 879 q 529 837 560 850 q 463 812 499 824 q 451 688 455 756 q 444 544 447 619 q 437 391 441 470 q 426 237 433 312 q 497 281 469 256 q 550 327 526 306 l 559 318 q 538 297 551 309 q 509 271 526 285 q 470 241 491 257 q 423 213 448 226 q 397 47 414 125 q 352 -90 381 -31 q 280 -183 323 -149 q 173 -218 236 -218 q 115 -208 144 -218 q 63 -179 86 -198 q 25 -133 40 -160 q 10 -73 10 -107 q 14 -59 10 -65 q 25 -48 18 -52 q 39 -41 31 -44 q 55 -38 47 -38 q 61 -44 61 -38 q 58 -52 61 -48 q 55 -62 55 -56 m 282 209 q 379 221 336 209 q 388 373 385 295 q 397 528 392 452 q 411 674 402 604 q 433 803 419 744 q 345 772 390 788 q 256 736 299 756 q 173 691 212 716 q 105 631 134 665 q 59 553 76 597 q 42 454 42 510 q 53 362 42 401 q 83 297 64 324 q 125 252 101 269 q 176 225 149 235 q 230 212 203 216 q 282 209 257 209 m 571 947 q 540 942 555 947 q 512 926 525 937 q 488 898 499 915 q 472 855 478 881 q 518 875 497 866 q 555 894 539 885 q 578 913 570 904 q 587 933 587 923 q 583 942 587 937 q 571 947 579 947 "},"|":{"x_min":127.5,"x_max":177.6875,"ha":278,"o":"m 137 1011 q 135 1011 136 1011 q 133 1013 133 1012 q 137 1023 133 1017 q 147 1034 141 1028 q 159 1043 152 1039 q 169 1047 165 1047 q 173 1044 171 1047 q 176 1036 176 1042 q 171 965 173 1005 q 169 880 170 925 q 167 790 168 836 q 166 701 166 744 q 165 622 165 659 q 165 562 165 586 q 165 488 165 534 q 166 384 166 442 q 167 261 166 326 q 168 127 167 195 q 170 -6 169 60 q 172 -131 170 -72 q 174 -237 173 -189 q 177 -315 176 -284 q 168 -337 177 -326 q 144 -347 159 -347 q 138 -346 141 -347 q 136 -344 136 -345 q 139 -340 136 -343 q 138 -224 139 -296 q 135 -67 137 -153 q 133 109 134 17 q 130 286 131 201 q 128 443 129 372 q 127 559 127 515 q 127 618 127 581 q 128 697 127 654 q 129 787 128 741 q 131 876 130 833 q 133 954 132 918 q 137 1011 135 990 "},"^":{"x_min":139.40625,"x_max":480.4375,"ha":583,"o":"m 179 722 q 168 720 175 718 q 154 725 161 722 q 142 733 147 729 q 140 741 137 738 q 185 800 158 765 q 242 874 213 834 q 274 920 263 902 q 294 950 286 939 q 308 967 301 962 q 327 972 316 972 q 333 972 328 972 q 343 971 337 972 q 353 966 348 969 q 358 956 357 963 q 380 900 367 927 q 408 845 393 872 q 441 791 423 818 q 478 734 459 764 q 474 715 484 724 q 442 706 463 706 q 417 743 429 722 q 393 788 404 765 q 372 834 382 811 q 353 875 362 857 q 336 904 343 893 q 322 915 328 915 q 299 896 315 915 q 264 849 284 877 q 221 786 244 820 q 179 722 199 752 "},"q":{"x_min":2.71875,"x_max":355.390625,"ha":342,"o":"m 200 290 q 206 363 203 336 q 212 389 208 389 q 223 387 218 389 q 232 380 228 384 q 238 373 236 377 q 240 369 240 370 q 239 340 240 362 q 238 284 238 318 q 282 263 264 278 q 299 223 299 248 q 288 188 299 202 q 258 160 277 173 l 248 162 q 257 186 254 176 q 261 206 261 197 q 254 232 261 221 q 237 250 248 242 q 235 114 236 191 q 231 -48 233 37 q 267 -121 250 -88 q 298 -187 284 -155 q 322 -251 311 -219 q 340 -320 333 -284 q 351 -400 347 -357 q 355 -498 355 -444 q 353 -536 355 -515 q 347 -580 352 -558 q 336 -625 343 -603 q 317 -663 328 -647 q 290 -690 306 -680 q 254 -701 275 -701 q 201 -655 219 -701 q 183 -531 183 -609 q 183 -414 183 -482 q 185 -266 184 -345 q 188 -105 186 -188 q 191 54 189 -23 q 177 36 185 46 q 155 18 168 27 q 128 5 143 10 q 94 0 113 0 q 62 6 78 0 q 32 26 46 12 q 11 59 19 39 q 2 108 2 80 q 19 177 2 144 q 64 235 36 210 q 126 275 91 260 q 197 290 161 290 l 200 290 m 316 -519 q 314 -412 316 -459 q 307 -327 311 -365 q 295 -257 302 -288 q 279 -197 288 -226 q 258 -141 269 -168 q 231 -83 246 -113 q 229 -212 230 -147 q 228 -337 229 -276 q 226 -453 227 -398 q 226 -552 226 -508 q 238 -652 226 -618 q 265 -686 249 -686 q 292 -670 282 -686 q 308 -629 303 -653 q 315 -575 313 -604 q 316 -519 316 -545 m 191 70 q 195 173 193 125 q 198 262 196 221 q 187 263 193 262 q 176 263 181 263 q 121 252 145 263 q 80 223 96 241 q 54 183 63 205 q 46 137 46 160 q 50 100 46 118 q 63 68 54 82 q 86 46 72 54 q 120 38 101 38 q 165 49 147 38 q 191 70 183 61 "},"b":{"x_min":27.8125,"x_max":308.59375,"ha":350,"o":"m 124 5 q 83 9 101 5 q 53 25 65 14 q 34 55 40 36 q 27 103 27 74 q 29 160 27 120 q 34 261 31 200 q 39 403 37 322 q 41 585 41 484 q 41 681 41 635 q 40 762 40 727 q 39 820 39 798 q 38 844 38 842 q 40 853 38 849 q 47 861 42 857 q 57 867 51 863 q 69 870 63 870 q 80 866 76 870 q 87 854 84 863 q 90 823 89 845 q 92 761 92 800 q 92 661 92 722 q 90 543 92 604 q 83 423 87 482 q 75 309 80 364 q 67 212 71 255 q 61 140 63 168 q 58 103 58 111 q 65 72 58 86 q 83 48 71 58 q 108 32 94 37 q 137 26 122 26 q 190 41 166 26 q 231 77 214 55 q 259 125 249 99 q 269 174 269 151 q 251 233 269 210 q 202 257 233 257 q 152 242 172 257 q 118 208 131 228 q 99 165 105 187 q 92 126 92 143 q 93 116 92 120 q 95 105 93 113 q 94 93 97 96 q 87 91 92 90 q 79 99 83 92 q 75 118 75 106 q 87 178 75 146 q 120 237 99 210 q 170 281 141 263 q 231 299 199 299 q 263 291 249 299 q 287 270 278 284 q 303 238 297 256 q 308 200 308 220 q 293 130 308 165 q 252 68 278 96 q 193 23 227 40 q 124 5 160 5 "},"D":{"x_min":0,"x_max":955.609375,"ha":979,"o":"m 425 237 q 425 275 425 255 q 426 316 425 295 q 376 305 403 309 q 320 301 349 301 q 180 327 240 301 q 80 398 120 354 q 20 501 40 442 q 0 623 0 559 q 19 747 0 690 q 73 852 39 805 q 154 936 107 900 q 256 999 202 973 q 369 1038 310 1024 q 489 1051 429 1051 q 680 1018 594 1051 q 828 923 767 986 q 922 768 889 860 q 955 558 955 676 q 947 440 955 505 q 923 310 940 376 q 878 182 906 244 q 812 72 851 120 q 722 -5 773 23 q 607 -34 672 -34 q 528 -20 564 -34 q 461 8 492 -6 q 422 -37 447 -21 q 364 -54 397 -54 q 341 -50 354 -54 q 318 -40 328 -47 q 300 -23 307 -33 q 293 1 293 -12 q 299 26 293 15 q 317 43 306 36 q 343 54 328 50 q 373 58 358 58 q 402 55 388 58 q 432 50 417 53 l 432 62 q 428 139 432 96 q 425 237 425 182 m 494 577 q 477 470 482 529 q 467 354 471 411 q 515 372 496 362 q 550 393 534 382 l 554 385 q 520 359 541 374 q 467 331 498 345 q 466 283 466 306 q 466 240 466 261 q 467 188 466 210 q 470 147 468 166 q 472 110 471 128 q 473 73 473 92 q 472 55 473 64 q 470 40 472 47 q 537 17 504 28 q 607 6 570 6 q 713 28 667 6 q 793 88 759 50 q 849 176 827 126 q 885 281 872 225 q 905 394 899 336 q 910 505 910 451 q 882 707 910 613 q 798 868 853 800 q 661 976 742 937 q 473 1015 579 1015 q 291 988 373 1015 q 153 911 210 962 q 65 787 96 861 q 34 617 34 713 q 58 507 34 558 q 122 417 82 455 q 214 358 162 379 q 320 336 265 336 q 426 344 384 336 q 435 447 430 392 q 454 563 441 501 q 457 581 455 572 q 458 592 458 591 q 458 606 458 599 q 463 613 457 613 q 472 609 467 613 q 482 599 478 605 q 491 588 487 594 q 494 577 494 581 m 372 -22 q 412 -8 400 -22 q 429 23 425 4 q 401 32 414 29 q 375 35 387 35 q 339 29 355 35 q 323 6 323 22 q 338 -14 323 -6 q 372 -22 352 -22 "},"z":{"x_min":0,"x_max":360.8125,"ha":317,"o":"m 151 147 q 165 135 154 145 q 189 104 176 124 q 216 55 202 84 q 240 -13 230 25 q 297 62 268 21 q 351 151 325 102 l 360 145 q 303 50 332 93 q 244 -29 274 7 q 251 -75 248 -50 q 254 -128 254 -100 q 250 -223 254 -174 q 237 -320 246 -273 q 215 -411 228 -368 q 185 -486 202 -453 q 145 -537 167 -518 q 95 -556 122 -556 q 63 -549 79 -556 q 36 -528 48 -542 q 17 -492 25 -514 q 10 -442 10 -471 q 26 -328 10 -379 q 69 -232 42 -277 q 130 -146 95 -188 q 204 -58 165 -104 q 184 18 196 -14 q 157 74 171 51 q 128 109 143 96 q 104 126 114 122 q 93 131 97 129 q 88 139 88 132 q 91 145 88 142 q 101 148 94 148 q 128 154 111 148 q 159 172 144 160 q 186 200 174 183 q 197 237 197 216 q 181 275 197 260 q 141 290 165 290 q 83 277 107 290 q 43 249 59 265 q 19 222 28 234 q 6 209 10 209 q 1 211 2 209 q 0 216 0 214 q 11 236 0 219 q 45 272 23 253 q 98 306 67 291 q 169 322 129 322 q 224 304 202 322 q 245 257 245 286 q 230 205 245 225 q 198 171 215 184 q 151 147 177 156 m 212 -158 q 210 -115 212 -134 q 206 -76 208 -95 q 145 -152 174 -115 q 95 -228 117 -189 q 62 -313 74 -268 q 50 -415 50 -358 q 53 -452 50 -432 q 64 -488 56 -472 q 84 -515 72 -504 q 113 -526 96 -526 q 152 -506 137 -526 q 180 -456 168 -487 q 197 -384 191 -424 q 207 -304 204 -345 q 211 -224 210 -263 q 212 -158 212 -186 "},"w":{"x_min":18.3125,"x_max":529.015625,"ha":458,"o":"m 238 0 q 214 16 223 0 q 201 56 206 32 q 194 109 196 81 q 189 162 191 138 q 182 203 186 187 q 169 219 178 219 q 154 207 163 219 q 138 180 146 196 q 123 147 130 164 q 111 120 115 130 q 98 92 103 105 q 86 70 92 80 q 76 51 81 60 q 65 33 71 42 q 56 24 61 27 q 46 21 51 21 q 33 34 37 21 q 26 65 28 48 q 23 101 23 83 q 22 128 22 119 q 22 155 22 139 q 23 185 23 170 q 24 212 24 200 q 25 229 25 225 q 24 249 25 241 q 21 262 23 257 q 19 269 20 267 q 18 273 18 271 q 24 283 18 278 q 33 290 29 288 q 44 297 36 292 q 55 302 51 302 q 61 297 59 302 q 64 284 63 291 q 65 268 65 276 q 65 252 65 259 q 64 216 65 235 q 62 180 63 198 q 60 148 61 163 q 59 124 59 134 q 61 94 59 107 q 67 82 62 82 q 76 90 71 82 q 89 112 82 99 q 103 139 96 125 q 115 164 109 153 q 129 194 122 177 q 146 225 137 210 q 165 249 155 240 q 187 259 175 259 q 209 248 202 259 q 219 219 216 238 q 221 196 220 212 q 225 158 223 179 q 230 114 227 137 q 237 72 233 91 q 247 41 242 53 q 261 29 253 29 q 282 38 270 29 q 307 64 295 48 q 333 102 320 80 q 355 147 345 123 q 331 181 339 160 q 324 226 324 202 q 329 264 324 247 q 341 293 334 281 q 357 312 348 305 q 375 319 366 319 q 397 303 390 319 q 404 267 404 287 q 398 223 404 250 q 380 166 392 197 q 396 162 387 163 q 413 161 404 161 q 446 165 432 161 q 473 178 460 169 q 497 200 485 187 q 520 233 508 214 l 529 229 q 507 200 520 216 q 478 169 495 183 q 442 144 462 154 q 397 134 421 134 q 369 139 381 134 q 343 87 358 112 q 312 43 329 62 q 277 11 295 23 q 238 0 258 0 m 339 244 q 345 203 339 221 q 366 174 352 186 q 375 210 372 192 q 379 245 379 229 q 360 286 379 286 q 346 275 353 286 q 339 244 339 263 "},"$":{"x_min":41.375,"x_max":461.1875,"ha":503,"o":"m 404 613 q 410 622 406 617 q 417 634 414 627 q 423 651 421 641 q 425 676 425 661 q 400 721 425 710 q 330 733 375 733 q 295 729 312 733 q 258 719 277 725 q 257 640 257 678 q 257 562 257 602 q 257 466 257 518 q 258 358 257 415 q 293 343 277 351 q 322 323 309 335 q 341 297 334 312 q 348 263 348 282 q 341 216 348 237 q 323 179 335 195 q 296 151 311 162 q 263 133 280 140 q 266 72 265 101 q 269 15 267 42 q 262 -6 269 4 q 241 -16 256 -16 q 235 -15 238 -16 q 233 -13 233 -14 q 236 -9 233 -12 q 235 55 236 21 q 234 123 234 88 q 184 122 208 119 q 140 136 159 125 q 133 152 131 142 q 141 171 134 163 q 157 181 148 179 q 169 172 165 183 q 198 161 181 164 q 233 161 215 158 q 231 241 231 200 q 229 322 230 281 q 164 340 198 330 q 104 366 131 350 q 59 408 76 383 q 41 473 41 434 q 56 545 41 508 q 96 617 71 582 q 156 683 122 653 q 227 735 189 714 q 230 790 229 763 q 234 840 231 816 q 232 841 233 840 q 230 843 230 841 q 233 852 230 846 q 241 863 237 857 q 251 872 246 868 q 261 876 257 876 q 265 873 263 876 q 267 865 267 871 q 262 806 264 833 q 259 752 261 778 q 355 776 308 776 q 397 771 377 776 q 430 756 416 766 q 453 730 444 746 q 461 694 461 715 q 456 664 461 677 q 443 641 451 651 q 426 623 435 631 q 409 609 417 615 l 404 613 m 225 559 q 225 630 225 594 q 226 704 225 667 q 164 662 193 687 q 112 609 134 638 q 76 550 90 581 q 62 490 63 519 q 75 441 61 460 q 114 408 90 421 q 168 386 138 396 q 227 368 198 377 q 225 466 226 418 q 225 559 225 514 m 259 312 q 260 239 259 276 q 262 166 261 203 q 310 197 290 176 q 330 251 330 217 q 310 289 330 275 q 259 312 290 303 "},"™":{"x_min":69.171875,"x_max":725.015625,"ha":925,"o":"m 400 697 q 403 700 401 699 q 408 701 406 701 q 424 690 419 701 q 429 653 429 680 l 429 482 q 432 469 429 469 q 437 476 434 469 q 446 494 441 483 q 457 519 451 505 q 469 547 463 533 q 487 590 479 570 q 502 623 495 609 q 519 646 510 638 q 540 654 528 654 q 563 639 556 654 q 571 590 571 624 q 570 557 571 576 q 570 519 570 537 q 570 487 570 501 q 569 470 569 473 q 571 463 569 463 q 575 469 572 463 q 581 484 577 474 q 589 506 584 493 q 598 533 593 518 q 630 613 618 586 q 659 640 642 640 q 668 639 662 640 q 678 636 673 638 q 688 627 684 633 q 693 611 693 621 q 693 585 693 604 q 694 546 693 567 q 696 505 695 524 q 698 476 697 485 q 703 455 699 463 q 712 442 707 447 q 720 435 716 438 q 725 432 725 433 q 718 426 725 430 q 704 423 711 423 q 673 437 682 423 q 661 474 663 451 q 659 530 659 498 q 657 598 659 562 q 654 608 655 604 q 648 611 653 611 q 639 601 644 611 q 628 577 634 592 q 616 545 622 562 q 605 514 611 529 q 596 487 602 503 q 583 455 590 470 q 569 428 577 440 q 554 417 562 417 q 542 424 545 417 q 538 444 539 430 q 537 480 537 459 q 537 533 537 502 l 537 597 q 534 616 537 613 q 526 620 530 620 q 515 615 520 620 q 503 596 510 610 q 495 577 501 590 q 483 548 490 564 q 469 515 476 532 q 455 482 461 497 q 443 455 448 467 q 436 440 438 444 q 423 427 428 430 q 411 423 418 423 q 399 430 405 423 q 393 459 393 436 l 393 505 q 377 478 387 493 q 355 452 368 464 q 327 431 343 439 q 293 422 311 422 q 251 434 268 422 q 224 472 235 446 q 209 538 214 498 q 205 633 205 578 l 205 756 l 177 756 q 145 759 161 756 q 115 767 130 761 q 89 782 101 773 q 69 805 77 791 l 71 811 q 76 805 71 809 q 93 796 81 801 q 128 788 106 792 q 184 784 149 784 l 206 784 q 208 828 207 811 q 210 856 209 845 q 214 872 212 866 q 218 881 216 877 q 228 890 220 887 q 246 895 237 893 q 262 896 255 896 q 267 893 269 895 q 258 858 264 887 q 247 784 252 828 q 325 786 285 785 q 398 787 364 786 q 456 789 432 788 q 484 791 479 790 l 503 791 q 511 790 509 791 q 512 786 512 789 q 508 771 512 778 q 489 763 503 765 q 473 763 486 763 q 440 762 460 763 q 396 761 421 762 q 344 759 370 760 q 292 758 318 758 q 244 756 266 757 q 240 673 240 716 q 242 564 240 607 q 252 496 245 521 q 271 460 259 470 q 302 450 284 450 q 331 457 318 450 q 357 476 345 465 q 378 498 369 486 q 393 519 387 510 l 393 653 q 389 669 393 665 q 382 675 386 674 q 374 675 377 676 q 370 678 370 675 q 375 684 370 681 q 384 690 379 687 q 394 694 389 693 q 400 697 398 696 "},"\\":{"x_min":-19.671875,"x_max":380.5625,"ha":423,"o":"m 19 919 q 117 675 72 792 q 204 446 162 558 q 288 223 246 334 q 379 -2 330 113 q 375 -18 383 -13 q 359 -23 368 -23 q 345 -9 347 -23 q 257 213 299 105 q 171 432 215 321 q 81 661 128 543 q -18 914 35 779 q -18 915 -18 914 q -19 918 -19 916 q -15 924 -19 922 q -5 926 -10 926 q 9 924 0 926 q 19 919 18 923 "},"~":{"x_min":82.390625,"x_max":525.78125,"ha":583,"o":"m 122 315 q 110 301 118 303 q 96 302 103 299 q 85 311 89 305 q 83 323 80 318 q 105 363 92 343 q 135 400 118 383 q 172 426 151 416 q 216 437 192 437 q 261 422 236 437 q 312 389 286 407 q 363 356 338 371 q 408 341 387 341 q 436 349 424 341 q 457 370 448 358 q 473 398 466 383 q 487 426 480 413 q 492 434 486 431 q 507 436 499 436 q 521 431 515 435 q 524 421 527 427 q 503 372 515 394 q 475 334 491 350 q 440 309 459 318 q 398 301 421 301 q 351 316 375 301 q 303 349 327 330 q 254 382 278 367 q 205 397 229 397 q 178 388 191 397 q 153 366 164 379 q 134 339 142 353 q 122 315 126 325 "},"-":{"x_min":31.875,"x_max":269.25,"ha":319,"o":"m 179 168 q 106 167 140 168 q 35 166 72 166 q 33 168 34 167 q 31 172 31 168 q 33 183 31 176 q 36 197 34 190 q 40 208 38 203 q 44 213 42 213 q 118 215 83 213 q 191 216 153 216 q 208 216 196 216 q 234 216 221 217 q 258 215 248 216 q 269 210 269 213 q 267 200 269 207 q 264 185 266 193 q 260 172 262 178 q 255 166 257 166 q 217 168 236 168 q 179 168 198 168 "},"Q":{"x_min":0,"x_max":762.328125,"ha":665,"o":"m 670 96 q 661 76 668 90 q 641 43 653 61 q 612 5 629 25 q 575 -30 596 -14 q 530 -57 554 -46 q 478 -67 505 -67 q 430 -60 455 -67 q 378 -40 404 -52 q 326 -15 352 -28 q 276 8 300 -2 q 224 -17 248 -8 q 183 -26 200 -26 q 165 -24 174 -26 q 149 -18 156 -23 q 137 -8 141 -14 q 132 8 132 -2 q 138 28 132 18 q 157 45 145 38 q 184 56 168 52 q 219 61 200 61 q 255 56 237 61 q 293 44 274 52 q 383 121 335 75 q 478 224 431 168 q 567 345 524 281 q 642 477 610 410 q 694 610 675 543 q 714 735 714 676 q 698 825 714 786 q 655 893 682 865 q 591 935 628 921 q 511 950 554 950 q 385 935 446 950 q 271 896 324 921 q 173 838 217 872 q 97 765 129 804 q 48 683 65 726 q 30 597 30 640 q 37 539 30 564 q 54 494 44 513 q 77 462 65 475 q 103 441 90 449 l 98 436 q 62 460 80 445 q 30 495 44 475 q 8 540 16 515 q 0 594 0 565 q 22 691 0 642 q 83 785 44 740 q 173 868 122 830 q 283 935 225 907 q 403 980 341 964 q 524 996 465 996 q 616 983 573 996 q 691 941 659 970 q 743 865 724 912 q 762 751 762 818 q 741 627 762 693 q 687 493 721 560 q 608 358 653 425 q 513 231 562 291 q 411 121 463 171 q 314 35 360 70 q 357 14 335 25 q 401 -5 379 4 q 445 -20 423 -14 q 487 -26 466 -26 q 563 -11 533 -26 q 613 23 593 2 q 645 65 633 43 q 665 101 657 86 l 670 96 m 184 -4 q 215 1 198 -4 q 252 18 233 7 q 206 29 225 29 q 172 23 185 29 q 160 8 160 17 q 168 -1 160 0 q 184 -4 176 -4 "},"M":{"x_min":0,"x_max":1138.734375,"ha":1136,"o":"m 1138 107 q 1129 83 1136 99 q 1110 45 1121 66 q 1085 1 1099 24 q 1055 -39 1070 -21 q 1022 -70 1039 -58 q 990 -82 1005 -82 q 949 -60 966 -82 q 923 -6 933 -38 q 908 65 912 26 q 904 137 904 103 q 917 345 904 242 q 953 549 931 448 q 1003 749 975 650 q 1060 947 1031 849 q 1020 913 1045 947 q 962 824 994 879 q 891 696 929 768 q 815 549 853 624 q 738 399 776 473 q 668 266 700 326 q 659 251 664 260 q 646 233 653 242 q 630 219 639 225 q 612 213 621 213 q 598 220 602 213 q 592 238 594 227 q 586 329 589 278 q 580 432 583 379 q 574 536 577 484 q 566 629 571 587 q 557 701 562 672 q 544 740 552 731 q 545 728 544 735 q 545 714 545 722 q 545 697 545 706 q 539 613 545 663 q 518 506 532 564 q 485 385 505 448 q 438 262 465 322 q 379 147 412 202 q 307 51 347 92 q 223 -13 268 10 q 127 -37 178 -37 q 69 -24 92 -37 q 32 7 46 -10 q 10 46 18 26 q 0 79 3 66 l 6 82 q 29 49 14 62 q 60 29 43 36 q 97 18 78 21 q 136 15 116 15 q 221 36 181 15 q 298 92 262 56 q 364 176 333 128 q 420 278 395 223 q 465 390 446 332 q 498 504 484 448 q 517 612 511 560 q 523 705 524 663 q 522 727 523 714 q 519 750 520 739 q 522 757 520 752 q 529 767 524 762 q 538 774 533 771 q 552 777 544 777 q 584 750 571 777 q 604 679 596 723 q 615 579 611 635 q 622 465 619 523 q 627 354 625 408 q 633 259 629 299 q 649 280 637 259 q 679 337 661 301 q 721 420 697 373 q 772 522 745 468 q 828 632 798 575 q 887 743 857 689 q 946 844 916 796 q 1001 928 975 892 q 1051 984 1028 963 q 1091 1005 1074 1005 q 1102 998 1097 1002 q 1108 987 1108 993 q 1055 793 1083 895 q 1004 582 1027 690 q 965 364 980 474 q 950 148 950 255 q 954 91 950 122 q 966 34 958 61 q 986 -9 974 8 q 1012 -27 997 -27 q 1043 -11 1025 -27 q 1078 26 1060 4 q 1110 72 1096 48 q 1131 109 1125 95 l 1138 107 "},"C":{"x_min":56.96875,"x_max":733.15625,"ha":760,"o":"m 733 251 q 720 201 729 232 q 695 136 712 170 q 654 66 679 101 q 595 3 630 31 q 513 -43 560 -25 q 406 -61 466 -61 q 276 -28 339 -61 q 164 65 212 4 q 86 214 115 126 q 56 415 56 303 q 71 570 56 494 q 112 713 85 646 q 177 837 139 780 q 264 934 215 893 q 371 998 313 975 q 495 1020 430 1020 q 584 1005 545 1020 q 651 965 623 990 q 693 904 678 939 q 708 829 708 869 q 700 777 708 803 q 681 730 692 752 q 658 690 670 708 q 638 661 647 672 l 630 668 q 646 693 638 678 q 658 725 653 708 q 667 760 663 741 q 670 798 670 779 q 658 866 670 834 q 621 922 645 898 q 563 961 598 946 q 486 975 529 975 q 366 955 421 975 q 268 901 311 936 q 192 818 225 866 q 137 711 159 769 q 105 587 115 653 q 94 451 94 521 q 103 340 94 396 q 130 232 112 284 q 176 134 149 180 q 240 54 204 88 q 322 1 276 21 q 422 -18 368 -18 q 545 7 494 -18 q 632 72 597 32 q 688 160 668 111 q 719 254 709 208 l 733 251 "},"[":{"x_min":127.5,"x_max":352.671875,"ha":542,"o":"m 352 958 q 288 954 319 956 q 234 946 261 951 q 189 933 206 941 q 187 685 189 813 q 183 429 185 558 q 179 176 181 301 q 177 -63 177 50 q 179 -97 177 -82 q 186 -122 181 -111 q 203 -137 192 -132 q 231 -143 214 -143 q 289 -141 260 -143 q 343 -130 318 -139 l 347 -145 q 315 -155 333 -150 q 278 -166 297 -161 q 239 -174 259 -170 q 202 -177 219 -177 q 165 -169 179 -177 q 142 -147 150 -160 q 130 -117 133 -134 q 127 -83 127 -100 q 128 16 127 -40 q 130 138 129 73 q 133 273 131 202 q 135 417 134 344 q 138 561 137 489 q 139 699 139 633 q 137 834 139 771 q 136 947 136 897 q 143 963 136 958 q 173 970 150 968 q 239 972 196 972 q 352 973 282 972 l 352 958 "},"L":{"x_min":0,"x_max":786.0625,"ha":509,"o":"m 647 647 q 685 679 667 660 q 718 721 704 698 q 740 772 732 745 q 748 828 748 798 q 729 907 748 872 q 676 968 710 943 q 599 1006 643 992 q 507 1019 556 1019 q 388 1002 446 1019 q 280 956 330 986 q 186 884 229 926 q 113 791 144 842 q 65 682 82 740 q 48 560 48 623 q 56 477 48 517 q 74 398 63 437 q 98 322 85 360 q 122 246 111 284 q 141 169 133 208 q 148 88 148 130 q 147 68 148 78 q 143 48 146 58 q 188 28 166 40 q 233 5 211 16 q 276 -12 255 -4 q 318 -19 297 -19 q 354 -13 339 -19 q 380 2 369 -8 q 399 27 391 13 q 412 59 406 42 l 426 56 q 374 -31 405 -5 q 298 -56 343 -56 q 250 -49 273 -56 q 207 -32 227 -42 q 167 -9 186 -21 q 130 12 148 2 q 97 -28 118 -11 q 50 -46 77 -46 q 13 -32 26 -46 q 0 -4 0 -18 q 6 22 0 10 q 24 43 13 34 q 49 57 35 52 q 78 62 63 62 q 124 54 100 62 q 125 62 124 58 q 126 69 126 65 q 117 142 126 105 q 93 216 107 179 q 63 293 80 254 q 33 372 47 332 q 10 454 19 412 q 1 539 1 495 q 21 670 1 606 q 77 793 41 735 q 162 900 113 851 q 270 984 211 948 q 394 1040 328 1020 q 527 1060 459 1060 q 639 1043 591 1060 q 720 999 688 1027 q 769 931 753 970 q 786 848 786 893 q 775 784 786 813 q 748 729 765 754 q 706 680 730 703 q 654 638 682 658 l 647 647 m 63 -9 q 93 0 81 -9 q 112 22 105 8 q 87 32 99 28 q 63 37 75 37 q 40 29 48 37 q 33 12 33 21 q 40 -3 33 2 q 63 -9 48 -9 "},"!":{"x_min":69.171875,"x_max":144.46875,"ha":236,"o":"m 94 803 q 92 807 92 805 q 92 812 92 810 q 100 835 92 827 q 122 844 108 844 q 137 840 130 844 q 144 823 144 836 q 143 737 144 785 q 139 635 141 689 q 133 523 137 581 q 127 406 130 465 q 122 291 124 347 q 118 184 119 235 q 119 180 119 182 q 119 177 119 179 q 112 163 119 169 q 98 158 105 158 q 92 160 94 158 q 90 166 90 162 q 88 395 88 278 q 88 632 88 512 q 89 717 88 674 q 94 803 90 760 m 108 104 q 132 92 125 104 q 140 63 140 80 q 129 33 140 44 q 103 22 118 22 q 80 31 91 22 q 69 59 69 40 q 80 92 69 81 q 108 104 91 104 "}," ":{"x_min":0,"x_max":0,"ha":236},"{":{"x_min":143.109375,"x_max":326.21875,"ha":528,"o":"m 326 966 q 253 943 282 959 q 208 905 225 927 q 184 856 191 883 q 177 800 177 829 q 187 729 177 763 q 208 662 196 694 q 229 599 219 630 q 238 541 238 569 q 230 484 238 511 q 202 429 221 457 q 228 393 219 414 q 237 333 237 373 q 228 273 237 309 q 208 195 219 236 q 189 112 198 153 q 180 38 180 71 q 188 -24 180 5 q 211 -77 196 -54 q 252 -115 227 -100 q 309 -136 276 -131 l 307 -151 q 237 -128 267 -146 q 187 -81 207 -109 q 156 -18 166 -53 q 145 52 145 15 q 152 128 145 89 q 168 203 160 166 q 184 272 177 240 q 191 328 191 304 q 191 346 191 337 q 187 365 190 356 q 178 384 184 375 q 160 401 171 394 q 149 401 156 401 q 143 405 143 402 q 145 416 143 410 q 153 427 148 422 q 165 436 158 433 q 180 438 172 439 q 193 527 193 461 q 185 588 193 560 q 168 644 177 616 q 150 704 158 673 q 143 773 143 735 q 151 837 143 804 q 179 901 159 871 q 235 952 200 930 q 324 980 270 974 l 326 966 "},"X":{"x_min":0,"x_max":1309.640625,"ha":782,"o":"m 1305 874 q 1285 892 1298 881 q 1253 914 1273 903 q 1208 933 1234 925 q 1148 942 1182 942 q 1037 909 1091 942 q 931 820 983 876 q 831 691 880 765 q 735 534 782 617 q 643 363 689 451 q 554 194 598 276 q 567 104 560 145 q 584 33 574 63 q 608 -12 594 4 q 641 -29 621 -29 q 672 -21 656 -29 q 702 -2 688 -12 q 728 17 717 7 q 744 30 739 27 l 747 29 q 737 14 744 24 q 719 -6 730 5 q 696 -29 708 -17 q 670 -52 683 -42 q 643 -68 656 -62 q 619 -75 630 -75 q 581 -60 597 -75 q 553 -17 565 -44 q 533 46 541 8 q 519 128 525 84 q 444 3 481 61 q 371 -97 408 -54 q 299 -164 335 -140 q 226 -189 263 -189 q 178 -176 200 -189 q 140 -147 156 -164 q 112 -113 124 -130 q 95 -87 101 -96 l 101 -82 q 122 -102 111 -92 q 149 -122 134 -113 q 184 -137 164 -131 q 230 -143 204 -143 q 299 -118 265 -143 q 369 -51 334 -94 q 440 48 404 -9 q 512 172 476 105 q 496 315 504 240 q 477 465 489 391 q 449 607 466 539 q 405 726 432 674 q 337 808 377 777 q 241 838 297 838 q 148 818 186 838 q 87 765 111 798 q 53 693 63 733 q 42 613 42 653 q 49 552 42 579 q 68 504 56 524 q 94 469 80 483 q 126 448 109 455 l 122 440 q 77 457 99 444 q 38 492 55 471 q 10 541 21 513 q 0 604 0 569 q 23 712 0 661 q 83 800 46 763 q 166 858 120 837 q 258 880 212 880 q 359 851 317 880 q 432 773 402 822 q 481 660 461 725 q 513 525 500 596 q 534 380 526 454 q 550 240 542 307 q 638 409 593 322 q 729 580 682 497 q 825 737 776 663 q 926 867 874 811 q 1032 956 978 923 q 1146 988 1087 988 q 1209 977 1182 988 q 1257 949 1237 966 q 1289 913 1277 933 q 1309 878 1302 894 l 1305 874 "},"P":{"x_min":50.1875,"x_max":768.421875,"ha":782,"o":"m 226 930 q 227 940 226 935 q 234 947 229 944 q 244 953 238 949 q 257 956 250 956 q 263 955 260 956 q 266 950 266 953 q 266 866 267 925 q 262 729 265 807 q 349 848 303 792 q 442 944 395 903 q 535 1007 489 984 q 625 1030 581 1030 q 683 1021 657 1030 q 729 988 710 1011 q 758 928 748 965 q 768 834 768 890 q 755 726 768 786 q 719 606 742 667 q 663 489 695 545 q 591 387 630 432 q 506 317 551 343 q 412 290 461 290 q 354 302 378 290 q 313 332 330 314 q 285 374 295 350 q 268 419 274 397 q 260 462 262 442 q 257 494 257 482 l 270 497 q 322 374 288 414 q 421 333 357 333 q 514 356 472 333 q 590 418 556 379 q 648 505 623 456 q 689 606 673 554 q 714 709 706 658 q 722 801 722 760 q 716 865 722 833 q 698 921 711 896 q 663 962 685 946 q 609 978 642 978 q 519 956 565 978 q 429 898 474 935 q 341 809 384 860 q 261 695 299 757 q 252 535 257 620 q 238 367 246 451 q 219 207 230 284 q 192 73 207 131 q 158 -19 177 14 q 115 -54 139 -54 q 78 -33 91 -54 q 59 16 65 -12 q 51 78 52 46 q 50 133 50 110 q 62 253 50 189 q 96 385 74 317 q 150 521 119 453 q 218 655 181 590 q 224 807 222 735 q 226 930 226 879 m 118 4 q 140 29 129 4 q 160 99 150 54 q 177 203 169 143 q 192 331 185 263 q 205 472 200 399 q 215 616 210 545 q 163 498 186 559 q 122 376 139 438 q 96 253 105 314 q 87 133 87 191 q 89 85 87 109 q 95 44 91 62 q 105 14 99 25 q 118 4 111 4 "},"%":{"x_min":55.609375,"x_max":613.796875,"ha":642,"o":"m 196 527 q 269 562 244 527 q 294 661 294 598 q 288 711 294 687 q 269 753 282 735 q 238 783 257 771 q 194 794 219 794 q 158 788 176 794 q 126 768 140 782 q 103 730 111 754 q 94 669 94 706 q 100 619 94 644 q 119 573 106 594 q 150 540 131 553 q 196 527 169 527 m 181 494 q 133 505 155 494 q 93 535 110 516 q 65 581 75 554 q 55 641 55 609 q 69 719 55 685 q 105 779 82 754 q 157 816 128 803 q 216 829 185 829 q 262 818 240 829 q 301 788 284 807 q 326 741 317 769 q 336 682 336 714 q 323 603 336 638 q 289 544 311 569 q 240 507 268 520 q 181 494 212 494 m 550 862 q 560 865 550 864 q 576 864 570 866 q 584 862 581 865 q 585 854 588 859 q 586 851 586 853 q 585 849 586 850 q 458 610 517 722 q 343 393 398 498 q 234 185 288 288 q 122 -26 180 82 q 108 -37 118 -40 q 91 -31 99 -37 q 88 -16 83 -26 q 204 198 149 92 q 314 411 259 304 q 426 629 368 518 q 550 862 483 740 m 473 29 q 547 64 522 29 q 572 162 572 99 q 566 212 572 188 q 548 255 560 236 q 516 284 535 273 q 472 295 497 295 q 436 289 453 295 q 404 269 418 284 q 381 231 389 255 q 372 170 372 207 q 378 120 372 145 q 397 75 384 95 q 428 42 409 54 q 473 29 447 29 m 459 -4 q 411 6 434 -4 q 371 36 388 17 q 343 83 354 56 q 333 143 333 110 q 347 221 333 186 q 383 280 360 256 q 434 317 405 304 q 494 330 463 330 q 540 319 518 330 q 578 289 562 308 q 604 242 594 269 q 613 183 613 215 q 601 104 613 139 q 567 45 588 69 q 518 8 546 21 q 459 -4 490 -4 "},"#":{"x_min":39.140625,"x_max":558.328125,"ha":583,"o":"m 107 545 q 104 551 103 545 q 109 563 105 557 q 118 576 113 570 q 128 581 124 581 l 237 581 q 269 682 252 632 q 305 783 286 732 q 312 794 304 790 q 329 798 320 797 q 345 796 339 798 q 348 790 352 794 q 267 583 303 685 l 405 583 q 434 687 419 636 q 467 783 450 737 q 479 793 472 790 q 495 798 487 797 q 508 796 503 798 q 511 790 513 794 q 471 686 489 737 q 437 583 453 634 q 555 579 495 581 q 557 573 559 579 q 552 561 556 567 q 542 549 548 554 q 533 543 537 543 q 479 545 505 544 q 426 547 452 547 q 397 444 411 496 q 372 343 384 393 l 493 339 q 495 333 496 339 q 489 320 493 327 q 480 308 485 314 q 470 302 474 302 q 418 305 444 303 q 364 307 391 307 q 336 198 350 252 q 308 91 322 145 q 297 75 305 83 q 282 65 289 68 q 269 64 274 61 q 269 79 265 67 q 303 188 286 130 q 336 308 320 246 q 181 308 257 310 q 152 202 167 255 q 123 91 138 149 q 117 80 124 86 q 102 72 110 75 q 88 70 94 69 q 84 79 82 71 q 120 194 102 137 q 153 308 137 251 q 98 307 125 307 q 46 305 71 307 q 39 310 37 305 q 45 322 40 316 q 57 334 50 328 q 67 340 64 340 l 164 340 q 193 443 178 392 q 226 545 209 495 l 107 545 m 255 547 q 222 445 238 496 q 190 341 206 394 q 267 342 229 341 q 344 343 305 343 q 369 444 356 393 q 396 547 382 496 q 325 548 360 548 q 255 547 290 547 "},"_":{"x_min":-27.8125,"x_max":319.4375,"ha":347,"o":"m 181 -132 q 126 -132 151 -132 q 77 -134 101 -133 q 29 -135 54 -134 q -23 -136 5 -136 q -26 -135 -25 -136 q -27 -130 -27 -134 q -25 -120 -27 -126 q -19 -108 -23 -114 q -10 -99 -15 -103 q -1 -95 -6 -95 q 54 -94 29 -95 q 103 -93 80 -94 q 152 -92 127 -92 q 208 -91 177 -91 q 233 -91 215 -91 q 270 -92 251 -91 q 304 -94 289 -92 q 319 -98 319 -95 q 317 -108 319 -101 q 311 -120 314 -114 q 304 -131 307 -126 q 297 -136 300 -136 q 240 -133 265 -134 q 181 -132 214 -132 "},"+":{"x_min":78,"x_max":533.078125,"ha":583,"o":"m 322 165 q 312 149 322 155 q 294 143 303 143 q 283 152 283 143 q 282 253 283 205 q 279 349 280 301 q 180 347 228 348 q 80 347 131 347 q 78 352 78 347 q 79 362 78 356 q 83 374 81 368 q 89 383 86 379 q 95 387 92 387 q 189 387 144 387 q 279 389 234 388 l 279 432 q 283 580 279 505 q 287 587 283 583 q 297 594 291 591 q 309 600 303 598 q 319 602 315 602 q 323 600 323 602 q 319 429 319 516 l 319 392 l 383 392 q 401 392 388 392 q 431 391 415 392 q 466 390 448 391 q 499 389 484 390 q 523 387 514 389 q 533 384 533 386 q 530 375 533 381 q 523 362 527 368 q 515 352 519 356 q 507 347 510 347 q 356 351 432 351 l 319 351 q 320 257 319 302 q 322 165 322 211 "},")":{"x_min":111.234375,"x_max":383.203125,"ha":486,"o":"m 119 -136 q 208 -8 168 -75 q 278 130 249 59 q 323 278 307 202 q 339 432 339 354 q 324 564 339 497 q 282 698 310 632 q 212 826 254 764 q 115 943 170 888 q 111 948 111 945 q 115 960 111 953 q 126 972 120 966 q 138 983 132 978 q 149 987 145 987 q 156 979 154 987 q 251 863 209 924 q 322 734 293 801 q 367 596 352 668 q 383 451 383 525 q 362 290 383 372 q 307 131 342 209 q 227 -16 273 54 q 128 -145 181 -87 l 119 -136 "},"'":{"x_min":69.171875,"x_max":113.9375,"ha":183,"o":"m 112 663 q 102 655 112 658 q 84 651 92 651 q 73 657 73 651 q 71 732 73 697 q 69 807 69 767 q 70 848 69 826 q 73 889 71 869 q 77 895 73 891 q 87 901 82 898 q 99 906 92 904 q 109 908 105 908 q 113 905 113 908 q 109 811 109 859 q 111 735 109 770 q 112 663 112 699 "},"}":{"x_min":162.78125,"x_max":348.609375,"ha":528,"o":"m 162 -139 q 233 -116 206 -132 q 277 -77 261 -100 q 298 -28 293 -55 q 304 27 304 -1 q 296 98 304 64 q 277 165 287 132 q 258 227 267 197 q 250 286 250 257 q 258 343 250 316 q 286 398 267 370 q 257 429 269 406 q 245 490 245 452 q 255 563 245 524 q 275 641 264 602 q 296 718 286 680 q 305 788 305 756 q 298 851 305 822 q 275 905 290 881 q 236 943 260 928 q 179 963 212 959 l 181 979 q 251 955 221 974 q 304 909 282 937 q 337 846 325 881 q 348 775 348 811 q 338 698 348 737 q 317 623 328 659 q 296 554 305 586 q 286 497 286 521 q 287 479 286 489 q 291 459 288 470 q 302 440 295 449 q 320 423 309 430 q 326 424 322 423 q 334 424 330 424 q 342 424 339 424 q 345 422 345 423 q 343 411 345 417 q 335 399 340 404 q 323 390 330 394 q 308 388 316 387 q 294 355 301 377 q 286 301 286 333 q 295 241 286 268 q 316 185 305 213 q 337 124 328 156 q 347 48 347 91 q 339 -14 347 18 q 309 -75 330 -47 q 253 -125 288 -104 q 164 -152 218 -146 l 162 -139 "},"a":{"x_min":2.71875,"x_max":389.984375,"ha":349,"o":"m 251 234 q 240 241 245 234 q 227 257 235 248 q 206 272 219 265 q 173 279 193 279 q 120 264 145 279 q 78 228 96 250 q 51 180 61 206 q 41 130 41 153 q 59 71 41 94 q 108 48 78 48 q 150 57 132 48 q 180 82 168 67 q 176 127 176 100 q 180 174 176 156 q 191 203 185 193 q 204 217 198 213 q 216 221 211 221 q 228 213 221 221 q 236 187 236 206 q 227 137 236 163 q 204 87 219 111 q 229 56 212 66 q 267 47 246 47 q 303 55 286 47 q 334 78 320 64 q 362 111 349 92 q 385 149 375 130 l 389 147 q 368 96 381 121 q 337 53 354 72 q 298 23 319 34 q 255 12 278 12 q 218 23 238 12 q 185 63 198 34 q 137 22 164 38 q 79 5 110 5 q 47 13 61 5 q 23 35 33 21 q 8 67 13 48 q 2 105 2 85 q 17 174 2 140 q 58 237 33 209 q 116 282 84 265 q 185 299 149 299 q 230 294 212 299 q 259 280 248 288 q 274 264 269 272 q 279 251 279 256 q 269 238 279 242 q 251 234 259 234 m 194 144 q 198 105 194 122 q 213 144 208 124 q 218 179 218 164 q 212 196 218 196 q 200 181 206 196 q 194 144 194 166 "},"T":{"x_min":0,"x_max":1155.6875,"ha":878,"o":"m 1106 914 q 1121 903 1112 910 q 1137 887 1129 897 q 1150 866 1144 878 q 1155 838 1155 853 q 1149 805 1155 821 q 1130 776 1143 788 q 1096 757 1117 764 q 1047 750 1075 750 q 976 756 1011 750 q 906 774 942 763 q 834 800 870 786 q 760 829 798 814 q 746 389 758 600 q 706 -21 733 179 q 690 -53 698 -44 q 676 -62 682 -62 q 668 -57 670 -62 q 665 -47 665 -53 l 665 -42 q 683 150 677 55 q 694 338 690 244 q 699 528 697 432 q 704 726 701 624 q 706 789 705 760 q 706 849 706 819 q 593 882 652 868 q 467 895 533 895 q 292 877 372 895 q 154 819 212 859 q 65 715 96 779 q 33 559 33 651 q 43 490 33 525 q 76 426 53 455 q 138 379 100 397 q 230 360 175 360 q 311 374 278 360 q 367 408 344 388 q 405 449 390 427 q 429 486 419 470 l 438 480 q 425 456 434 471 q 403 423 417 440 q 372 387 390 405 q 329 354 354 368 q 276 329 305 339 q 209 320 246 320 q 124 337 162 320 q 57 384 85 354 q 15 457 30 414 q 0 552 0 499 q 18 671 0 617 q 70 769 37 725 q 147 845 103 812 q 244 900 192 878 q 353 933 296 922 q 466 944 409 944 q 594 931 534 944 q 708 900 653 918 l 708 973 q 712 990 708 983 q 722 1002 716 997 q 736 1008 729 1006 q 750 1011 744 1011 q 758 1009 755 1011 q 762 1003 762 1007 l 762 880 q 839 850 801 865 q 914 823 876 835 q 988 803 951 811 q 1065 796 1026 796 q 1091 799 1078 796 q 1115 809 1104 803 q 1132 826 1125 815 q 1138 849 1138 836 q 1127 884 1138 871 q 1102 906 1115 897 l 1106 914 "},"=":{"x_min":91.5625,"x_max":519.515625,"ha":583,"o":"m 94 416 q 91 422 91 416 q 93 432 91 426 q 97 443 94 438 q 103 453 100 449 q 109 457 106 457 q 179 457 147 457 q 240 459 210 458 q 300 460 269 459 q 369 461 331 461 q 387 461 374 461 q 417 460 400 461 q 452 460 434 460 q 484 459 470 459 q 509 457 499 458 q 519 454 519 456 q 516 444 519 451 q 510 432 514 438 q 501 421 505 425 q 493 416 496 416 q 418 419 455 418 q 343 421 381 421 q 275 420 305 421 q 216 418 244 419 q 158 417 187 417 q 94 416 128 416 m 94 278 q 91 283 91 278 q 92 293 91 287 q 95 304 93 299 q 99 314 96 310 q 105 318 102 318 q 173 318 143 318 q 230 318 202 318 q 288 319 259 318 q 355 319 318 319 q 374 319 360 319 q 403 320 387 320 q 438 320 420 320 q 471 319 456 320 q 495 317 486 318 q 505 315 505 316 q 502 305 505 311 q 497 293 500 299 q 489 282 493 287 q 482 278 485 278 q 405 279 444 280 q 328 279 366 279 q 263 279 292 279 q 209 278 235 278 q 156 278 183 278 q 94 278 128 278 "},"N":{"x_min":0,"x_max":1412.734375,"ha":885,"o":"m 1407 956 q 1378 997 1393 977 q 1342 1033 1363 1017 q 1293 1059 1321 1049 q 1224 1069 1264 1069 q 1097 1034 1153 1069 q 997 941 1041 1000 q 922 803 954 881 q 867 637 890 725 q 828 457 843 549 q 802 280 813 366 q 785 120 792 194 q 773 -6 779 46 q 758 -26 770 -17 q 739 -34 747 -34 q 727 -16 729 -34 q 715 71 722 20 q 699 181 708 123 q 677 302 689 240 q 648 424 665 364 q 610 537 632 484 q 560 632 588 590 q 529 524 547 583 q 488 401 510 465 q 440 271 466 337 q 385 143 414 205 q 326 28 357 82 q 262 -65 295 -25 q 194 -129 229 -105 q 126 -152 160 -152 q 70 -140 93 -152 q 33 -112 48 -128 q 10 -81 18 -96 q 0 -61 2 -66 l 5 -56 q 20 -72 11 -63 q 44 -88 29 -80 q 78 -100 58 -95 q 127 -105 99 -105 q 200 -81 164 -105 q 268 -16 235 -57 q 330 79 301 24 q 387 194 360 133 q 437 321 413 256 q 480 447 460 385 q 515 563 499 508 q 541 658 530 617 q 483 709 516 691 q 412 727 451 727 q 352 716 378 727 q 307 688 325 706 q 280 646 289 670 q 270 597 270 622 q 278 549 270 570 q 298 511 286 527 q 322 484 309 495 q 345 467 335 474 l 340 461 q 318 476 333 464 q 286 506 302 487 q 257 550 269 524 q 245 605 245 575 q 260 677 245 647 q 298 727 274 707 q 350 756 321 746 q 411 766 380 766 q 489 750 453 766 q 554 704 524 733 q 558 717 556 710 q 562 729 560 725 q 570 744 565 739 q 580 751 575 749 q 588 753 585 753 q 592 754 592 754 q 585 724 590 742 q 575 682 581 706 q 629 594 605 644 q 671 489 653 544 q 702 374 689 433 q 725 261 716 316 q 742 158 735 206 q 755 75 749 110 q 769 207 760 132 q 791 367 778 282 q 823 539 804 451 q 867 711 841 628 q 927 869 893 795 q 1004 999 961 944 q 1101 1087 1047 1055 q 1222 1119 1155 1119 q 1279 1110 1254 1119 q 1325 1087 1305 1102 q 1360 1055 1345 1073 q 1385 1020 1374 1038 q 1402 986 1395 1002 q 1412 959 1409 970 l 1407 956 "},"2":{"x_min":46.125,"x_max":647.03125,"ha":681,"o":"m 534 38 q 520 11 527 26 q 504 -17 514 -4 q 480 -39 495 -30 q 444 -48 465 -48 q 401 -41 421 -48 q 363 -24 381 -34 q 327 -2 345 -14 q 291 19 309 9 q 242 -8 265 0 q 204 -16 219 -16 q 162 -7 178 -16 q 147 19 147 2 q 153 37 147 29 q 171 49 160 44 q 194 57 181 54 q 219 59 207 59 q 256 55 237 59 q 294 44 274 50 q 360 103 325 67 q 428 182 394 138 q 492 279 461 227 q 545 387 522 330 q 582 503 569 444 q 596 622 596 562 q 582 702 596 667 q 545 762 569 737 q 489 799 522 786 q 419 812 457 812 q 295 793 356 812 q 183 738 233 774 q 101 653 133 703 q 67 540 69 602 q 83 497 67 512 q 123 482 98 482 q 152 487 142 482 q 169 497 163 493 l 173 495 q 167 480 171 490 q 156 461 163 471 q 138 444 149 451 q 113 437 128 437 q 81 446 94 437 q 60 470 67 455 q 49 503 52 484 q 46 539 46 521 q 63 626 46 584 q 109 702 80 667 q 177 766 139 737 q 257 815 215 794 q 342 846 299 835 q 423 857 385 857 q 516 843 475 857 q 587 800 558 828 q 631 731 616 773 q 647 636 647 690 q 632 516 647 576 q 591 399 617 457 q 532 289 566 342 q 462 189 499 236 q 387 104 425 143 q 315 37 349 65 q 384 12 349 25 q 453 0 419 0 q 484 3 472 0 q 505 13 497 7 q 518 26 513 18 q 529 41 523 33 l 534 38 m 205 12 q 235 15 217 12 q 270 29 252 19 q 215 41 246 41 q 184 26 184 39 q 190 15 184 18 q 205 12 196 12 "},"j":{"x_min":-137.671875,"x_max":206.859375,"ha":178,"o":"m -137 -523 q -124 -402 -137 -455 q -87 -305 -110 -349 q -33 -219 -64 -260 q 31 -133 -2 -179 q 29 -71 30 -101 q 27 -8 28 -41 q 25 61 26 23 q 25 145 25 98 q 25 183 25 159 q 27 232 26 208 q 28 275 27 256 q 29 295 29 293 q 31 307 29 302 q 35 314 33 311 q 42 321 37 316 q 53 329 47 325 q 63 337 59 334 q 70 340 68 340 q 75 337 75 340 q 76 333 76 335 q 75 317 76 332 q 72 277 74 303 q 70 216 71 251 q 69 139 69 181 q 69 65 69 96 q 70 8 69 33 q 72 -37 71 -16 q 75 -78 73 -58 q 136 12 105 -35 q 197 124 166 61 l 206 115 q 142 -6 175 45 q 76 -103 109 -59 q 78 -162 78 -130 q 79 -242 79 -194 q 68 -422 79 -345 q 38 -550 56 -499 q -3 -627 20 -601 q -52 -653 -27 -653 q -84 -644 -69 -653 q -111 -619 -100 -636 q -130 -579 -123 -603 q -137 -523 -137 -555 m 34 -263 q 33 -208 34 -233 q 33 -160 33 -183 q -18 -231 5 -196 q -60 -305 -42 -266 q -88 -390 -78 -344 q -98 -495 -98 -436 q -94 -537 -98 -515 q -83 -579 -91 -560 q -64 -610 -75 -598 q -34 -622 -52 -622 q -10 -608 -21 -622 q 8 -568 0 -593 q 20 -507 15 -542 q 28 -433 25 -473 q 33 -350 31 -393 q 34 -263 34 -307 m 63 489 q 88 478 79 489 q 98 445 98 467 q 87 411 98 421 q 61 400 75 400 q 40 409 50 400 q 29 441 29 418 q 39 476 29 463 q 63 489 50 489 "},"Z":{"x_min":0,"x_max":1026.15625,"ha":747,"o":"m 816 55 q 783 4 800 29 q 741 -41 765 -21 q 689 -74 718 -61 q 622 -87 660 -87 q 518 -74 569 -87 q 420 -43 468 -61 q 324 -8 372 -25 q 229 18 277 9 q 176 -17 203 -2 q 126 -31 149 -31 q 101 -25 111 -31 q 90 -4 90 -19 q 95 12 90 4 q 111 27 100 20 q 139 38 122 33 q 180 42 156 42 q 201 42 191 42 q 222 41 211 41 q 299 146 257 82 q 386 288 340 211 q 483 451 433 366 q 586 618 533 536 q 694 775 639 701 q 805 904 749 849 q 725 907 767 904 q 639 914 684 910 q 544 921 594 918 q 440 925 495 925 q 275 906 353 925 q 139 851 198 888 q 46 757 81 813 q 12 623 12 700 q 17 572 12 595 q 31 529 22 548 q 55 493 41 510 q 87 462 69 477 l 82 455 q 57 477 71 462 q 31 512 44 491 q 9 558 18 533 q 0 615 0 584 q 18 729 0 678 q 70 820 37 780 q 150 889 103 860 q 252 937 196 918 q 370 966 307 956 q 499 975 433 975 q 578 971 537 975 q 660 962 619 967 q 742 954 701 958 q 819 950 782 950 l 858 950 q 929 996 895 979 q 996 1013 963 1013 q 1018 1006 1009 1013 q 1026 987 1026 998 q 1007 955 1026 969 q 961 931 988 941 q 900 914 933 921 q 840 905 868 908 q 767 818 804 868 q 694 711 731 769 q 621 591 657 654 q 547 464 584 528 q 474 338 510 400 q 400 221 437 276 q 326 118 363 165 q 252 38 289 71 q 355 20 306 32 q 452 -4 404 7 q 548 -26 499 -16 q 651 -35 597 -35 q 713 -25 688 -35 q 757 0 739 -14 q 787 32 775 15 q 808 61 798 48 l 816 55 m 141 2 q 170 5 153 2 q 204 22 188 8 q 182 24 193 23 q 161 25 171 25 q 132 20 142 25 q 123 10 123 16 q 128 4 123 5 q 141 2 134 2 m 969 984 q 930 977 947 984 q 893 954 912 969 q 928 959 912 956 q 956 965 944 961 q 976 973 969 969 q 983 982 983 977 q 978 984 983 984 q 969 984 973 984 "},"u":{"x_min":0,"x_max":315.375,"ha":335,"o":"m 209 139 q 209 150 209 143 q 210 164 210 157 q 210 175 210 170 q 210 183 210 181 q 209 189 210 187 q 205 181 207 190 q 200 166 204 179 q 188 135 196 153 q 170 96 181 117 q 145 58 160 75 q 113 29 131 41 q 75 18 96 18 q 30 35 43 18 q 16 87 16 52 q 18 117 16 97 q 23 157 21 136 q 28 196 26 177 q 30 225 30 215 q 15 254 30 254 q 9 253 12 254 q 5 252 6 252 q 0 258 0 252 q 5 265 0 260 q 30 270 11 270 q 60 254 52 270 q 69 216 69 238 q 67 189 69 206 q 63 153 65 172 q 60 116 61 134 q 58 91 58 99 q 66 55 58 65 q 90 44 75 44 q 118 55 104 44 q 144 83 132 67 q 164 115 155 99 q 179 144 173 132 q 188 177 184 159 q 196 212 192 194 q 202 246 200 230 q 208 275 205 263 q 221 283 209 281 q 244 286 232 286 q 250 282 250 286 q 249 236 250 265 q 248 176 248 206 q 258 66 248 100 q 294 33 267 33 q 304 34 300 33 q 312 35 309 35 q 315 33 315 35 q 315 32 315 35 q 312 25 315 29 q 300 17 309 21 q 275 13 292 13 q 245 20 257 13 q 225 41 233 26 q 214 80 218 56 q 209 139 210 104 "},"1":{"x_min":13.5625,"x_max":248.90625,"ha":332,"o":"m 187 -27 q 184 12 185 -12 q 182 66 183 37 q 181 126 181 94 q 180 187 181 158 q 180 244 180 217 q 180 290 180 271 q 183 474 180 395 q 189 611 185 553 q 196 706 193 668 q 198 768 198 744 q 197 779 198 774 q 190 784 196 784 q 161 770 180 784 q 119 733 142 755 q 71 684 96 711 q 25 633 46 657 l 13 645 q 73 716 42 679 q 135 785 105 754 q 188 837 164 817 q 226 858 212 858 q 241 855 234 858 q 248 847 248 852 q 248 835 248 843 q 247 816 248 828 q 241 734 244 770 q 235 663 238 697 q 230 592 232 628 q 227 510 229 556 q 225 405 226 465 q 225 266 225 346 q 226 220 225 246 q 228 163 227 193 q 232 103 230 133 q 236 46 234 72 q 239 1 238 21 q 240 -25 240 -17 q 236 -32 240 -28 q 226 -39 231 -35 q 213 -44 220 -42 q 200 -46 206 -46 q 191 -41 193 -46 q 187 -27 188 -37 "},"k":{"x_min":16.953125,"x_max":295.703125,"ha":321,"o":"m 26 15 q 20 18 24 15 q 16 27 16 22 q 21 45 16 37 q 33 66 25 54 l 33 139 q 31 212 33 158 q 29 362 29 266 q 33 470 29 414 q 45 579 37 525 q 67 680 54 632 q 100 765 81 729 q 144 823 120 801 q 201 844 169 844 q 225 836 213 844 q 247 813 238 828 q 263 773 257 797 q 269 718 269 750 q 257 607 269 663 q 228 496 246 551 q 187 392 210 442 q 143 300 165 342 q 103 227 122 259 q 75 180 85 196 q 73 151 73 166 q 73 126 73 137 q 109 175 88 147 q 153 227 130 203 q 203 269 177 252 q 255 286 229 286 q 287 277 278 286 q 295 252 295 268 q 284 214 295 232 q 258 182 274 197 q 223 155 242 167 q 188 134 204 143 q 162 119 172 125 q 151 111 151 113 q 163 97 151 105 q 189 80 174 88 q 217 66 204 72 q 230 59 229 60 q 238 55 234 57 q 242 50 242 54 q 240 44 242 48 q 235 34 238 39 q 227 26 231 29 q 216 22 222 22 q 187 30 204 22 q 153 50 169 39 q 127 73 137 60 q 116 96 116 86 q 120 106 116 100 q 130 115 123 111 q 142 122 132 115 q 165 137 151 128 q 192 157 178 145 q 220 181 207 168 q 240 206 232 193 q 248 229 248 218 q 243 245 248 238 q 223 252 237 252 q 203 247 214 252 q 182 233 193 242 q 160 213 170 225 q 139 190 149 202 q 117 161 130 179 q 92 124 104 143 q 71 89 80 105 q 61 67 62 73 q 57 53 59 62 q 52 36 56 45 q 42 21 48 27 q 26 15 35 15 m 71 366 q 72 326 71 347 q 73 284 73 305 q 74 244 73 263 q 75 210 75 225 q 120 298 93 244 q 171 416 146 352 q 214 551 196 480 q 231 689 231 621 q 229 735 231 713 q 221 773 227 757 q 203 799 215 790 q 173 809 191 809 q 139 792 154 809 q 113 743 124 774 q 93 670 101 712 q 81 579 86 628 q 74 476 76 530 q 71 366 71 421 "},"€":{"x_min":0,"x_max":579.203125,"ha":607,"o":"m 124 347 q 150 271 132 307 q 199 206 169 234 q 270 160 229 177 q 364 143 311 143 q 447 158 413 143 q 506 196 482 172 q 545 249 531 220 q 567 305 559 278 l 577 302 q 569 271 575 290 q 551 230 562 252 q 523 186 540 208 q 481 146 505 164 q 424 116 457 128 q 349 105 392 105 q 257 122 302 105 q 176 169 212 138 q 116 244 140 200 q 87 345 92 288 l 5 345 l 2 347 q 0 351 0 348 q 6 370 0 360 q 16 380 12 380 l 86 380 q 87 413 86 397 q 91 444 89 428 l 8 444 l 5 445 q 2 450 2 446 q 4 459 2 454 q 9 468 6 464 q 15 476 12 473 q 21 479 18 479 l 99 479 q 141 579 113 532 q 207 661 168 626 q 294 716 246 696 q 397 737 342 737 q 467 725 434 737 q 525 692 501 712 q 564 644 550 671 q 579 588 579 617 q 572 551 579 569 q 556 516 565 532 q 536 487 546 500 q 518 466 525 474 l 510 472 q 535 511 524 487 q 545 563 545 535 q 533 612 545 588 q 499 655 520 636 q 448 685 477 674 q 388 697 420 697 q 284 680 329 697 q 207 633 239 663 q 154 564 174 604 q 126 480 134 525 q 178 481 152 480 q 231 482 203 482 q 256 482 238 482 q 293 481 274 482 q 327 480 312 481 q 343 476 343 478 q 341 467 343 472 q 336 457 339 462 q 329 447 333 451 q 323 444 326 444 q 268 445 296 446 q 213 445 241 445 q 166 444 188 445 q 120 444 143 444 q 119 422 119 432 q 119 400 119 411 l 119 381 q 161 383 140 383 q 205 383 182 383 q 227 383 210 383 q 261 382 243 383 q 292 381 278 382 q 305 377 305 380 q 303 369 305 374 q 299 358 301 364 q 293 349 296 353 q 287 345 290 345 q 239 347 263 347 q 189 347 214 347 l 124 347 "},"<":{"x_min":112.578125,"x_max":458.484375,"ha":583,"o":"m 112 379 q 125 393 112 384 q 158 413 137 402 q 205 437 179 424 q 261 462 232 449 q 317 487 289 475 q 368 511 345 500 q 408 530 392 522 q 429 543 424 538 q 436 544 431 545 q 445 541 440 543 q 454 535 451 538 q 458 527 458 531 q 454 513 458 518 q 448 507 450 508 q 406 486 433 498 q 349 460 380 474 q 288 433 319 446 q 231 407 257 419 q 190 387 206 396 q 174 375 174 378 q 191 360 174 370 q 232 337 207 350 q 289 308 258 324 q 350 277 320 293 q 406 246 380 261 q 445 219 432 231 q 448 208 451 215 q 441 195 446 201 q 431 185 436 189 q 422 184 425 181 q 399 200 417 189 q 354 225 381 211 q 297 256 328 240 q 236 289 266 273 q 180 320 206 305 q 137 347 153 335 q 125 350 130 345 q 117 361 120 355 q 113 372 114 366 q 112 379 112 377 "},"t":{"x_min":-187.1875,"x_max":344.53125,"ha":224,"o":"m 263 147 q 248 110 259 133 q 221 65 238 87 q 179 27 204 43 q 122 13 154 12 q 73 30 92 15 q 41 76 53 45 q 23 154 29 107 q 18 267 18 201 q 21 382 18 331 q 30 473 25 434 q -24 472 0 472 q -56 472 -47 472 q -95 474 -76 472 q -132 484 -115 477 q -163 502 -149 491 q -187 530 -177 513 l -184 536 q -178 530 -183 535 q -157 519 -172 524 q -116 509 -142 514 q -50 505 -90 505 l 34 505 q 56 596 45 566 q 71 634 67 626 q 87 654 77 646 q 105 662 98 662 q 128 635 120 662 q 137 551 137 608 q 137 530 137 541 q 136 507 136 518 q 198 508 168 507 q 251 510 227 509 q 290 511 274 510 q 311 512 306 512 q 322 513 314 512 q 333 514 330 514 q 344 507 344 514 q 338 490 344 497 q 315 480 333 482 q 295 479 311 480 q 253 478 278 479 q 197 477 228 478 q 133 474 166 476 q 109 348 126 417 q 59 202 91 280 q 67 128 62 158 q 81 80 72 98 q 103 54 90 62 q 134 47 116 47 q 171 54 154 47 q 202 73 188 62 q 226 98 216 84 q 244 122 237 111 q 255 141 251 134 q 259 149 259 149 l 263 147 m 107 474 q 84 474 95 474 q 62 473 73 473 q 59 394 60 434 q 58 316 58 353 l 58 240 q 90 360 78 301 q 107 474 103 418 m 65 505 q 87 506 75 505 q 109 507 98 507 l 109 530 q 107 584 109 564 q 103 616 105 604 q 98 631 101 627 q 92 634 94 634 q 83 624 87 634 q 75 597 79 614 q 69 556 72 579 q 65 505 67 532 "},"W":{"x_min":0,"x_max":1493.453125,"ha":932,"o":"m 266 46 q 319 92 285 59 q 394 170 353 125 q 479 268 436 215 q 562 376 523 322 q 557 438 558 410 q 556 487 556 466 q 563 561 556 526 q 584 623 571 596 q 619 665 598 649 q 668 680 640 680 q 700 665 689 680 q 711 625 711 650 q 703 579 711 604 q 680 523 695 553 q 647 462 666 494 q 604 396 627 430 q 616 274 609 337 q 635 149 624 210 q 658 35 645 88 q 685 -54 670 -16 q 731 138 707 40 q 783 331 756 236 q 842 517 811 427 q 911 687 874 607 q 990 833 948 767 q 1083 948 1033 900 q 1192 1023 1133 996 q 1319 1049 1251 1049 q 1389 1035 1359 1049 q 1440 1001 1419 1022 q 1474 955 1461 980 q 1493 908 1487 930 l 1487 904 q 1471 927 1481 910 q 1440 962 1460 944 q 1390 992 1420 979 q 1315 1005 1359 1005 q 1170 970 1236 1005 q 1050 870 1105 935 q 948 709 995 804 q 860 495 902 615 q 781 233 819 375 q 706 -70 744 90 q 699 -84 705 -77 q 687 -96 693 -91 q 673 -106 680 -102 q 663 -109 666 -109 q 658 -109 660 -109 q 655 -106 656 -108 q 652 -100 653 -104 q 647 -88 650 -96 q 620 -4 632 -54 q 597 105 607 46 q 578 226 586 164 q 565 343 570 288 q 499 259 533 300 q 430 180 464 217 q 365 110 396 142 q 308 54 334 78 q 265 17 283 30 q 240 4 247 4 q 231 8 234 4 q 227 20 229 13 q 225 32 225 26 q 225 40 225 37 q 233 158 225 99 q 251 275 241 217 q 269 392 261 333 q 278 510 278 450 q 273 550 278 529 q 256 588 268 571 q 222 615 243 604 q 168 626 200 626 q 111 615 137 626 q 65 585 84 604 q 34 544 46 567 q 23 495 23 520 q 40 440 23 464 q 84 411 57 417 l 83 405 q 54 417 69 408 q 27 440 39 426 q 7 470 14 453 q 0 507 0 487 q 18 573 0 543 q 65 622 37 602 q 125 653 92 642 q 185 663 158 663 q 238 655 214 663 q 281 627 263 646 q 309 579 299 609 q 319 510 319 550 q 311 400 319 457 q 292 283 303 343 q 274 163 282 223 q 266 46 266 103 m 598 516 q 599 477 598 497 q 601 434 599 456 q 651 527 632 483 q 670 604 670 571 q 669 615 670 609 q 666 626 668 621 q 659 636 663 632 q 649 640 655 640 q 620 627 631 640 q 605 594 610 613 q 599 554 600 575 q 598 516 598 533 "},"v":{"x_min":-10.859375,"x_max":331.65625,"ha":290,"o":"m 92 33 q 117 44 103 33 q 146 75 131 56 q 176 121 162 95 q 200 174 190 146 q 167 208 179 186 q 156 252 156 229 q 160 280 156 267 q 170 302 164 293 q 186 318 177 312 q 204 323 194 323 q 226 310 217 323 q 236 267 236 298 q 232 234 236 253 q 221 193 228 215 l 234 193 q 264 199 250 193 q 289 213 278 204 q 308 235 300 223 q 323 259 317 247 l 331 255 q 319 231 327 246 q 297 202 310 216 q 267 178 284 188 q 229 168 250 168 q 221 168 225 168 q 212 169 217 168 q 185 110 201 139 q 151 56 170 80 q 111 18 132 33 q 67 4 90 4 q 52 5 59 4 q 40 15 45 7 q 30 38 34 23 q 24 82 27 54 q 20 151 21 109 q 19 252 19 193 q 4 282 19 282 q -1 281 0 282 q -5 280 -4 280 q -10 286 -10 280 q -2 293 -10 288 q 25 298 6 298 q 53 288 46 298 q 61 257 61 278 q 62 161 61 200 q 65 97 63 122 q 69 59 67 72 q 76 40 72 46 q 84 33 80 34 q 92 33 88 33 m 173 258 q 180 223 173 239 q 205 198 187 206 q 210 222 208 210 q 212 247 212 234 q 211 262 212 254 q 208 276 210 269 q 202 286 206 282 q 191 290 198 290 q 179 281 184 290 q 173 258 173 271 "},">":{"x_min":124.796875,"x_max":470.6875,"ha":583,"o":"m 470 345 q 458 331 470 340 q 424 311 445 322 q 377 287 404 300 q 322 262 350 275 q 265 237 293 249 q 214 213 238 224 q 174 194 191 202 q 153 181 158 186 q 147 180 151 179 q 137 183 142 181 q 128 189 132 186 q 124 197 124 193 q 129 211 124 206 q 134 218 133 217 q 177 239 150 227 q 233 264 203 251 q 295 291 263 278 q 351 317 326 305 q 392 337 376 328 q 408 349 408 346 q 392 364 408 354 q 350 387 375 374 q 293 416 324 400 q 232 447 262 432 q 177 478 202 463 q 137 505 151 493 q 134 516 132 509 q 141 529 136 523 q 152 539 146 535 q 161 540 158 543 q 184 524 166 535 q 228 499 202 513 q 285 468 255 484 q 346 435 316 451 q 402 403 376 419 q 445 377 429 388 q 457 374 453 378 q 465 363 462 369 q 469 352 468 358 q 470 345 470 346 "},"s":{"x_min":-2.71875,"x_max":177.6875,"ha":229,"o":"m -2 82 q 38 157 20 118 q 69 231 56 195 q 41 279 52 255 q 30 328 30 303 q 35 374 30 354 q 48 408 40 394 q 66 431 56 423 q 87 438 76 438 q 111 423 102 438 q 119 385 120 408 q 112 327 118 358 q 95 263 106 296 q 123 232 109 248 q 150 201 138 217 q 169 166 162 185 q 177 126 177 147 q 166 71 177 96 q 139 27 155 46 q 107 0 124 9 q 78 -10 90 -10 q 45 0 56 -10 q 34 23 34 10 q 37 44 34 33 q 45 62 41 54 q 54 76 50 71 q 61 82 59 82 q 65 79 64 82 q 66 75 66 77 q 65 65 66 71 q 65 55 65 59 q 72 36 65 44 q 98 29 80 29 q 115 32 105 29 q 133 43 124 35 q 148 62 142 50 q 153 88 153 73 q 147 118 153 103 q 129 150 140 134 q 105 183 118 166 q 79 218 92 200 q 45 143 63 179 q 5 76 26 107 l -2 82 m 48 364 q 58 318 48 338 q 83 279 67 298 q 90 319 88 300 q 92 356 92 339 q 71 404 92 404 q 57 395 65 404 q 48 364 48 385 "},"B":{"x_min":0,"x_max":996.984375,"ha":1019,"o":"m 299 71 q 320 58 310 64 q 340 46 329 52 q 337 109 338 78 q 335 172 336 141 q 289 181 307 174 q 271 201 271 187 q 288 223 271 216 q 333 233 305 231 l 333 314 q 335 471 333 395 q 339 621 336 547 q 349 771 343 696 q 365 926 355 847 q 232 864 295 900 q 120 780 168 827 q 44 675 72 733 q 15 552 15 618 q 20 519 15 538 q 34 481 25 501 q 58 444 44 462 q 91 413 72 426 l 83 404 q 46 437 62 418 q 20 477 31 457 q 5 519 10 498 q 0 558 0 539 q 31 688 0 627 q 114 800 62 749 q 232 893 166 852 q 369 965 299 935 q 372 980 370 972 q 375 996 373 988 q 377 1015 376 1005 q 379 1026 379 1024 q 378 1040 379 1032 q 384 1047 378 1047 q 393 1044 388 1047 q 402 1037 398 1041 q 409 1028 406 1033 q 412 1019 412 1023 q 409 999 411 1009 q 406 980 408 990 q 537 1017 474 1004 q 651 1030 600 1030 q 784 1013 721 1030 q 894 960 847 996 q 969 867 942 924 q 996 729 996 809 q 978 593 996 657 q 927 474 960 529 q 850 372 895 419 q 753 289 805 326 q 641 227 700 253 q 523 187 583 202 q 548 151 540 171 q 556 108 556 131 q 550 69 556 88 q 529 34 543 50 q 494 8 515 18 q 444 -1 472 -1 q 412 1 427 -1 q 383 8 396 4 q 385 -16 384 -4 q 387 -40 385 -28 q 387 -49 387 -43 q 388 -58 388 -56 q 383 -69 388 -64 q 375 -73 378 -73 q 348 -40 352 -73 q 344 -5 346 -22 q 341 27 343 10 q 314 46 326 37 q 293 63 301 56 l 299 71 m 373 426 q 373 338 373 387 q 373 236 372 289 l 385 236 q 453 227 422 236 q 505 204 483 219 q 619 237 563 215 q 724 291 674 259 q 814 366 773 323 q 884 461 855 408 q 930 577 914 514 q 947 714 947 640 q 926 824 947 774 q 867 908 905 873 q 775 962 828 943 q 655 982 721 982 q 532 971 596 982 q 402 940 467 961 q 385 762 392 838 q 377 626 379 686 q 374 518 374 566 q 373 426 373 470 m 375 170 q 378 98 376 134 q 381 29 379 63 q 401 24 391 25 q 422 23 411 23 q 495 50 472 23 q 518 115 518 76 q 494 181 518 156 q 437 173 465 175 q 381 170 408 170 l 375 170 m 375 191 l 377 191 q 425 193 401 191 q 472 198 448 194 q 435 211 456 206 q 388 216 415 216 l 375 216 l 375 191 m 335 193 q 334 203 335 198 q 333 213 333 208 q 309 201 309 209 q 317 196 309 197 q 335 193 324 194 "},"?":{"x_min":41.375,"x_max":507.3125,"ha":549,"o":"m 208 519 q 170 482 190 497 q 122 466 151 466 q 87 474 102 466 q 62 494 72 482 q 46 523 52 507 q 41 558 41 540 q 54 629 41 594 q 91 696 68 664 q 146 756 115 729 q 213 803 178 783 q 286 834 248 823 q 359 845 323 845 q 426 834 398 845 q 472 803 454 822 q 498 757 490 784 q 507 702 507 731 q 487 608 507 652 q 439 523 468 563 q 377 446 411 482 q 315 375 343 409 q 266 307 286 340 q 247 240 247 274 q 259 202 247 216 q 291 189 271 189 q 318 194 305 189 q 345 215 332 199 l 351 210 q 339 194 347 203 q 322 177 332 185 q 301 163 313 168 q 276 158 289 158 q 230 177 248 158 q 212 229 212 197 q 230 291 212 259 q 275 358 248 324 q 334 430 302 393 q 392 508 365 467 q 437 593 419 549 q 455 685 455 636 q 448 729 455 708 q 426 767 441 750 q 390 793 412 783 q 339 803 368 803 q 231 782 280 803 q 145 728 181 761 q 88 654 109 695 q 67 571 67 612 q 85 519 67 540 q 136 498 102 498 q 178 506 164 498 q 202 524 192 514 l 208 519 m 278 90 q 302 78 294 90 q 309 50 309 66 q 298 19 309 30 q 271 8 287 8 q 249 17 260 8 q 238 46 238 26 q 249 79 238 67 q 278 90 261 90 "},"H":{"x_min":-16.953125,"x_max":662.625,"ha":684,"o":"m 623 250 q 651 249 639 250 q 662 241 662 248 q 654 223 662 229 q 633 216 646 218 q 604 214 620 214 q 573 215 588 215 l 558 215 l 558 141 q 559 68 558 98 q 564 15 561 37 q 572 -22 568 -6 q 581 -55 576 -39 q 585 -62 585 -59 q 575 -74 585 -68 q 552 -80 564 -80 q 540 -77 544 -80 q 533 -62 535 -73 q 524 -22 528 -47 q 519 28 521 2 q 516 80 517 55 q 515 120 515 105 q 515 167 515 143 q 516 215 515 191 q 373 217 440 215 q 238 219 305 219 l 212 219 q 196 91 208 154 q 160 -30 184 27 q 100 -138 137 -88 q 12 -225 64 -187 l 1 -216 q 80 -129 48 -181 q 131 -19 112 -78 q 159 100 151 39 q 168 218 167 162 q 95 216 132 218 q 21 210 59 214 q 2 208 12 209 q -9 206 -7 206 q -16 215 -16 206 q -7 238 -16 230 q 22 250 2 246 q 72 253 42 253 q 143 254 103 254 l 168 254 q 161 422 166 341 q 148 585 155 503 q 136 752 141 666 q 130 934 130 837 q 131 960 130 946 q 134 987 132 975 q 139 1009 137 1000 q 145 1018 142 1018 q 156 1014 149 1018 q 171 1004 164 1010 q 184 993 179 999 q 190 983 190 987 q 188 977 190 981 q 185 965 187 973 q 182 944 183 956 q 180 912 180 931 q 182 797 180 848 q 188 701 185 746 q 197 613 192 656 q 205 521 201 570 q 211 413 208 472 q 213 278 213 354 l 213 254 q 364 251 285 252 q 516 250 442 250 q 522 412 518 330 q 531 570 526 494 q 541 714 536 647 q 550 832 545 781 q 556 914 554 883 q 559 950 559 946 q 556 967 559 956 q 554 987 554 978 q 558 991 554 989 q 570 994 563 992 q 582 996 576 995 q 591 996 588 996 q 606 986 600 996 q 612 967 612 976 q 609 901 612 942 q 600 809 605 861 q 589 693 595 756 q 577 558 583 630 q 566 409 571 487 q 559 250 561 332 l 623 250 "},"c":{"x_min":13.5625,"x_max":261.109375,"ha":296,"o":"m 180 304 q 201 301 190 304 q 221 294 212 299 q 235 281 229 288 q 241 263 241 274 q 228 225 241 242 q 199 198 215 209 q 158 174 181 185 l 153 181 q 175 197 166 188 q 190 216 183 204 q 197 241 197 227 q 185 266 197 255 q 151 278 172 278 q 112 266 129 278 q 82 237 94 255 q 63 197 70 219 q 56 151 56 174 q 62 113 56 131 q 80 82 68 95 q 109 60 91 68 q 153 52 128 52 q 198 59 179 52 q 229 73 217 65 q 255 94 244 82 l 261 90 q 228 51 247 68 q 186 25 211 37 q 126 13 161 13 q 87 20 107 13 q 50 39 67 26 q 24 73 34 52 q 13 122 13 94 q 26 191 13 158 q 61 249 38 224 q 113 289 83 274 q 180 304 144 304 "},"&":{"x_min":27.8125,"x_max":864.0625,"ha":836,"o":"m 864 -10 q 827 -40 846 -25 q 786 -65 807 -54 q 742 -84 765 -77 q 697 -91 720 -91 q 637 -77 664 -91 q 585 -37 609 -63 q 542 22 562 -12 q 505 96 522 56 q 363 23 435 50 q 227 -4 291 -4 q 138 7 175 -4 q 75 41 100 19 q 39 94 51 63 q 27 162 27 124 q 45 248 27 210 q 93 320 63 287 q 163 380 124 352 q 245 433 202 407 q 332 483 288 459 q 413 536 375 508 q 409 599 410 571 q 408 648 408 627 q 413 704 408 672 q 432 765 419 736 q 466 813 444 793 q 522 833 489 833 q 548 827 537 833 q 566 810 559 820 q 577 787 573 800 q 580 760 580 773 q 571 696 580 726 q 545 639 561 666 q 506 590 529 613 q 458 547 484 567 q 469 452 462 503 q 486 350 476 402 q 510 246 496 298 q 541 149 524 195 q 630 225 589 183 q 701 311 671 266 q 748 403 731 356 q 765 495 765 450 q 757 553 765 531 q 731 588 749 575 l 735 596 q 789 555 773 583 q 805 489 805 526 q 785 401 805 448 q 730 307 765 354 q 648 213 695 259 q 548 127 601 166 q 583 56 564 88 q 625 1 602 24 q 674 -35 648 -22 q 731 -48 701 -48 q 763 -47 748 -48 q 791 -40 777 -45 q 821 -25 806 -35 q 855 0 836 -16 l 864 -10 m 229 40 q 365 60 297 38 q 497 120 433 82 q 466 218 480 167 q 443 321 453 269 q 426 422 433 373 q 415 516 419 472 q 337 468 377 491 q 259 421 297 444 q 187 372 221 397 q 126 317 152 346 q 85 253 101 288 q 70 177 70 219 q 85 109 70 136 q 122 67 99 83 q 173 46 145 52 q 229 40 202 40 m 450 691 q 451 640 450 672 q 455 571 452 609 q 519 648 495 606 q 543 744 543 689 q 541 760 543 751 q 536 776 540 769 q 525 789 532 784 q 507 794 518 794 q 477 785 489 794 q 460 761 466 775 q 452 728 454 746 q 450 691 450 710 "},"I":{"x_min":0,"x_max":661.265625,"ha":591,"o":"m 442 29 q 422 33 432 31 q 402 37 413 35 q 346 -14 379 4 q 266 -33 312 -33 q 224 -23 237 -33 q 210 0 210 -13 q 219 18 210 9 q 243 36 227 28 q 282 49 259 44 q 335 54 305 54 q 355 53 345 54 q 375 51 365 52 q 413 155 400 92 q 433 291 426 217 q 441 447 439 366 q 447 606 443 528 q 460 755 451 685 q 489 878 469 826 q 392 869 443 874 q 292 853 341 864 q 197 823 242 842 q 118 771 152 803 q 63 691 83 739 q 42 575 42 643 q 50 518 42 546 q 75 469 59 491 q 116 434 91 447 q 173 421 141 421 q 224 429 202 421 q 260 448 245 437 q 286 473 276 460 q 304 494 297 485 l 311 490 q 292 461 305 480 q 261 424 280 442 q 216 393 242 406 q 156 380 190 380 q 88 395 118 380 q 40 435 59 411 q 10 490 20 459 q 0 550 0 520 q 24 677 0 623 q 90 769 49 731 q 184 833 131 807 q 294 874 238 858 q 405 901 350 891 q 507 918 461 910 q 555 973 526 953 q 625 992 584 992 q 649 983 637 992 q 661 954 661 973 q 650 923 661 935 q 621 903 640 911 q 576 890 602 895 q 520 881 551 885 q 499 765 505 832 q 491 619 493 697 q 486 460 488 542 q 477 302 484 378 q 454 159 470 225 q 409 47 439 93 q 427 43 418 45 q 445 38 436 40 l 442 29 m 331 6 q 350 21 341 13 q 366 40 359 29 q 354 41 360 41 q 340 41 347 41 q 298 38 314 41 q 271 30 281 35 q 258 20 261 26 q 254 9 254 14 q 260 -2 254 2 q 282 -6 267 -6 q 305 -4 293 -6 q 331 6 318 -1 m 620 971 q 572 960 593 971 q 537 923 552 948 q 607 939 580 931 q 633 963 633 948 q 628 970 633 969 q 620 971 623 971 "},"G":{"x_min":41.375,"x_max":952.90625,"ha":606,"o":"m 335 -240 q 368 -230 353 -239 q 394 -203 383 -221 q 411 -156 405 -185 q 417 -87 417 -127 q 414 -23 417 -62 q 406 63 411 15 q 340 17 378 34 q 252 0 303 0 q 167 14 206 0 q 100 59 128 29 q 56 136 71 90 q 41 247 41 183 q 61 385 41 315 q 115 523 80 455 q 198 655 150 591 q 300 776 245 719 q 416 879 356 832 q 538 961 477 927 q 659 1013 600 994 q 772 1032 719 1032 q 833 1024 801 1032 q 891 996 865 1016 q 935 943 918 977 q 952 857 952 909 q 930 777 952 821 q 861 693 908 733 l 855 698 q 901 767 888 732 q 914 841 914 801 q 901 904 914 876 q 868 951 888 931 q 822 981 847 970 q 772 991 797 991 q 606 960 689 991 q 446 874 523 928 q 303 747 370 819 q 188 590 237 674 q 111 418 139 507 q 83 242 83 328 q 93 171 83 207 q 127 105 104 134 q 185 58 149 76 q 271 40 221 40 q 353 52 322 40 q 405 86 384 64 q 396 213 400 147 q 392 345 392 280 q 392 412 392 377 q 394 481 392 447 q 400 546 396 516 q 412 600 404 577 q 431 637 419 623 q 459 651 442 651 q 497 605 485 651 q 510 465 510 560 q 502 341 510 410 q 478 200 495 271 q 445 118 466 155 q 454 16 450 63 q 458 -59 458 -30 q 447 -134 458 -94 q 417 -208 437 -174 q 367 -264 397 -242 q 301 -286 338 -286 q 278 -282 288 -286 q 260 -273 267 -278 q 249 -261 253 -267 q 245 -250 245 -255 q 248 -238 245 -244 q 256 -225 251 -231 q 264 -214 260 -219 q 271 -210 269 -210 q 276 -213 275 -210 q 277 -218 276 -215 q 278 -225 277 -221 q 282 -230 278 -228 q 300 -238 289 -234 q 335 -240 310 -241 m 433 349 q 436 252 433 303 q 442 151 438 202 q 449 168 446 160 q 455 185 452 176 q 476 294 472 235 q 479 417 479 354 q 477 501 479 464 q 471 565 475 539 q 461 605 467 591 q 446 619 455 619 q 435 603 439 619 q 430 562 432 588 q 428 507 428 537 q 430 446 429 476 q 432 391 431 417 q 433 349 433 365 "},"(":{"x_min":78,"x_max":354.03125,"ha":486,"o":"m 340 963 q 249 840 289 905 q 181 705 209 775 q 138 560 153 634 q 123 408 123 485 q 181 129 123 261 q 345 -111 238 -2 q 350 -112 347 -112 q 354 -116 354 -113 q 350 -127 354 -120 q 340 -139 346 -133 q 328 -149 335 -145 q 316 -153 322 -153 q 302 -147 310 -153 q 208 -32 250 -92 q 137 95 166 28 q 93 233 108 162 q 78 380 78 305 q 98 536 78 455 q 153 696 118 617 q 233 846 187 774 q 328 973 278 917 l 340 963 "},"`":{"x_min":137.671875,"x_max":279.421875,"ha":416,"o":"m 144 461 q 137 466 137 461 q 140 476 137 470 q 147 488 143 482 q 156 497 151 493 q 165 501 161 501 q 169 499 168 501 q 197 467 184 483 q 223 437 210 451 q 249 408 236 422 q 278 380 263 394 q 279 373 279 379 q 274 360 279 367 q 263 354 269 354 q 257 356 258 354 q 198 414 229 388 q 144 461 167 440 "},"U":{"x_min":0,"x_max":1003.09375,"ha":914,"o":"m 872 193 q 846 153 862 178 q 805 99 829 129 q 814 50 809 73 q 826 8 819 27 l 829 8 q 832 5 832 8 q 828 -3 832 2 q 818 -14 824 -9 q 806 -24 813 -20 q 792 -29 798 -29 q 776 -7 784 -29 q 759 52 768 14 q 708 9 735 30 q 649 -26 680 -10 q 581 -51 617 -42 q 507 -61 545 -61 q 433 -49 470 -61 q 364 -9 395 -37 q 315 62 334 17 q 295 173 295 107 q 304 265 295 217 q 327 365 314 314 q 356 470 341 417 q 385 577 372 524 q 408 683 399 631 q 417 786 417 736 q 410 843 417 817 q 387 888 402 869 q 347 917 371 906 q 291 927 324 927 q 231 918 262 927 q 170 893 200 909 q 113 855 140 876 q 66 808 86 833 q 34 755 46 783 q 22 701 22 728 q 29 676 22 689 q 52 663 35 663 q 76 670 65 663 q 95 687 88 676 l 103 683 q 93 666 99 675 q 82 649 88 657 q 66 636 75 641 q 44 632 56 632 q 22 637 31 632 q 9 650 14 642 q 2 668 4 658 q 0 687 0 678 q 14 753 0 719 q 53 818 29 786 q 108 877 77 849 q 174 927 140 906 q 243 960 208 948 q 308 972 278 972 q 366 962 337 972 q 416 932 394 952 q 451 880 438 912 q 465 805 465 849 q 456 705 465 756 q 434 600 447 653 q 406 493 421 547 q 377 384 390 438 q 356 276 364 329 q 347 170 347 222 q 358 98 347 132 q 392 37 369 63 q 447 -3 414 11 q 524 -18 480 -18 q 597 -11 563 -18 q 659 8 630 -4 q 712 36 687 20 q 756 70 736 52 q 746 138 751 101 q 737 214 741 175 q 732 294 734 254 q 730 372 730 334 q 747 639 730 531 q 790 814 763 748 q 853 908 817 880 q 925 937 888 937 q 954 930 942 937 q 975 912 966 923 q 991 888 984 901 q 1003 865 997 876 l 994 859 q 965 883 980 873 q 923 893 949 893 q 839 853 868 893 q 796 743 809 813 q 780 576 782 673 q 777 366 777 480 q 784 244 777 309 q 801 118 790 179 q 836 163 821 141 q 862 200 851 185 l 872 193 "},"F":{"x_min":0,"x_max":918.3125,"ha":751,"o":"m 568 263 q 588 263 571 263 q 623 262 604 263 q 656 258 641 261 q 670 250 670 255 q 655 231 670 231 q 603 233 628 233 q 555 233 579 233 q 554 226 554 230 q 531 129 543 177 q 497 43 518 81 q 445 -16 476 6 q 369 -40 415 -40 q 309 -26 335 -40 q 265 6 284 -13 q 233 48 246 25 q 215 91 221 71 l 223 95 q 250 46 236 66 q 280 15 264 27 q 312 -1 295 3 q 345 -6 328 -6 q 407 5 382 -6 q 451 45 432 17 q 483 119 470 73 q 511 233 497 165 q 421 230 466 233 q 324 222 376 227 q 306 220 316 222 q 294 218 296 218 q 287 226 287 218 q 297 245 287 234 q 324 255 307 255 q 354 256 335 255 q 398 258 373 257 q 453 260 423 259 q 516 262 483 261 q 531 340 524 299 q 547 429 539 381 q 590 630 564 533 q 651 805 615 727 q 604 807 632 805 q 547 811 577 809 q 484 814 516 813 q 421 816 451 816 q 265 794 338 816 q 136 727 191 772 q 49 615 81 682 q 16 457 16 548 q 21 391 16 419 q 32 341 25 362 q 48 304 39 319 q 65 279 56 289 l 56 270 q 37 297 48 280 q 19 339 27 314 q 5 395 10 363 q 0 466 0 426 q 32 626 0 553 q 121 750 65 698 q 253 831 177 802 q 416 859 329 859 q 486 857 451 859 q 551 852 520 855 q 609 846 582 849 q 654 844 635 844 l 670 844 q 708 905 688 878 q 750 952 728 933 q 796 983 772 972 q 848 994 821 994 q 902 978 887 994 q 918 943 918 963 q 900 896 918 920 q 851 854 883 873 q 776 821 819 834 q 680 805 732 808 q 642 685 659 752 q 612 547 626 619 q 585 403 598 476 q 560 263 573 330 l 568 263 m 829 956 q 754 926 786 956 q 697 844 722 895 q 789 856 754 847 q 845 879 825 866 q 872 905 865 891 q 878 929 878 918 q 865 949 878 942 q 829 956 851 956 "},"r":{"x_min":6.78125,"x_max":360.8125,"ha":319,"o":"m 151 286 q 178 279 168 286 q 193 262 188 271 q 200 242 198 252 q 201 225 201 231 q 199 199 201 217 q 195 162 197 181 q 191 127 193 143 q 189 105 189 111 q 191 81 189 92 q 198 61 193 69 q 213 47 204 52 q 238 42 223 42 q 298 71 267 42 q 356 149 329 99 l 360 147 q 337 95 353 122 q 301 48 322 69 q 258 12 281 26 q 213 -1 235 -1 q 184 6 195 -1 q 166 26 172 14 q 158 51 160 37 q 156 78 156 65 q 159 112 156 92 q 165 152 162 132 q 170 190 168 172 q 173 218 173 208 q 170 232 173 227 q 162 241 167 238 q 153 244 158 244 q 145 245 148 245 q 126 243 138 245 q 92 241 114 241 q 80 242 86 241 q 67 244 74 242 q 59 192 65 217 q 45 146 52 167 q 29 110 37 125 q 15 88 21 94 q 6 96 6 88 q 13 113 7 101 q 28 145 20 126 q 43 192 35 165 q 51 252 50 219 q 19 318 19 271 q 24 339 19 330 q 40 348 29 348 q 61 331 54 348 q 69 284 67 314 q 78 282 73 283 q 88 282 82 282 q 121 284 106 282 q 151 286 137 286 m 47 302 q 50 297 47 299 q 49 303 49 300 q 48 309 48 307 q 47 314 47 311 q 44 311 45 314 q 47 302 42 309 "},":":{"x_min":69.171875,"x_max":140.390625,"ha":210,"o":"m 108 104 q 132 92 125 104 q 140 63 140 80 q 129 33 140 44 q 103 22 118 22 q 80 31 91 22 q 69 59 69 40 q 80 92 69 81 q 108 104 91 104 m 108 298 q 132 286 125 298 q 140 258 140 275 q 129 227 140 238 q 103 216 118 216 q 80 225 91 216 q 69 254 69 234 q 80 287 69 276 q 108 298 91 298 "},"x":{"x_min":4.0625,"x_max":337.046875,"ha":350,"o":"m 23 238 q 16 233 21 231 q 13 242 11 236 q 21 264 16 252 q 32 286 26 276 q 48 302 39 295 q 70 308 58 308 q 96 297 85 308 q 118 266 108 286 q 145 206 131 238 q 174 145 160 174 q 205 184 191 164 q 230 223 219 204 q 207 253 215 235 q 198 294 198 272 q 202 322 198 309 q 213 344 206 335 q 230 359 221 354 q 250 365 240 365 q 274 354 264 365 q 283 316 283 342 q 275 279 283 301 q 254 234 267 258 q 283 229 265 229 q 311 234 297 229 q 313 235 312 234 q 315 236 314 236 q 318 233 318 236 q 314 227 318 231 q 304 220 311 223 q 289 213 298 216 q 269 210 280 210 q 242 216 254 210 q 214 174 230 196 q 181 132 199 153 q 203 92 192 111 q 224 61 214 74 q 243 39 234 47 q 259 31 252 31 q 296 45 278 31 q 327 87 313 58 q 334 89 329 92 q 336 82 338 86 q 292 21 316 45 q 241 -2 269 -2 q 198 24 219 -2 q 152 98 176 52 q 117 64 134 80 q 83 37 99 49 q 51 20 66 26 q 25 13 37 13 q 21 13 24 13 q 13 16 17 14 q 7 25 10 19 q 4 41 4 31 q 6 56 4 48 q 13 65 9 65 q 20 61 17 65 q 26 53 23 58 q 31 46 29 49 q 38 42 34 42 q 86 62 58 42 q 145 112 115 82 q 111 182 128 145 q 75 262 94 220 q 65 274 71 268 q 52 279 58 279 q 36 269 43 279 q 23 238 29 260 m 210 301 q 218 269 210 284 q 240 242 226 253 q 253 274 248 259 q 258 301 258 288 q 252 324 258 314 q 236 335 246 335 q 217 324 224 335 q 210 301 210 314 "},"*":{"x_min":98.34375,"x_max":412.859375,"ha":469,"o":"m 105 833 q 98 843 98 836 q 102 857 98 851 q 113 866 106 864 q 127 861 120 868 q 180 828 155 844 q 234 796 205 812 q 233 852 234 824 q 233 908 233 879 q 233 921 228 914 q 247 931 239 927 q 264 934 256 935 q 271 926 271 934 q 266 868 267 901 q 265 797 265 834 q 321 832 292 815 q 388 872 351 850 q 395 873 387 875 q 408 866 402 871 q 412 853 413 860 q 394 837 411 845 q 327 804 356 819 q 273 772 299 788 q 325 745 297 759 q 388 715 353 731 q 403 704 401 711 q 400 692 404 697 q 386 684 395 686 q 368 689 377 682 q 313 717 337 703 q 265 747 288 732 q 265 686 265 715 q 267 629 266 656 q 261 615 267 619 q 248 610 255 611 q 237 613 242 610 q 236 619 232 615 q 234 683 234 651 q 234 747 234 714 q 182 712 208 730 q 122 676 155 695 q 114 675 120 672 q 103 685 107 678 q 99 698 99 691 q 113 710 100 705 q 172 741 146 726 q 223 772 198 757 q 169 802 198 786 q 105 833 141 817 "},"V":{"x_min":0,"x_max":952.90625,"ha":564,"o":"m 914 898 q 922 929 918 911 q 926 969 926 947 q 909 1015 926 998 q 858 1032 893 1032 q 752 1002 800 1032 q 661 922 703 973 q 586 800 620 870 q 524 650 552 731 q 475 483 497 570 q 437 309 453 396 q 408 139 420 222 q 387 -13 396 56 q 386 -25 386 -18 q 383 -40 385 -32 q 376 -55 381 -48 q 360 -67 370 -63 q 333 -65 335 -82 q 323 36 328 -20 q 308 154 317 92 q 289 281 300 217 q 265 405 279 345 q 235 518 252 465 q 197 610 218 571 q 152 673 177 650 q 98 695 127 695 q 43 677 65 695 q 21 623 21 658 q 28 588 21 602 q 51 559 35 573 l 48 556 q 11 590 23 568 q 0 634 0 611 q 7 673 0 655 q 29 704 15 691 q 63 725 44 717 q 105 733 82 733 q 170 709 141 733 q 223 644 200 685 q 266 550 247 604 q 299 438 284 497 q 323 319 313 379 q 342 203 334 258 q 355 101 349 147 q 365 26 361 55 q 390 179 376 96 q 422 348 404 261 q 463 522 440 435 q 515 691 486 610 q 579 842 544 771 q 657 964 615 912 q 750 1045 699 1015 q 859 1074 800 1074 q 894 1069 877 1074 q 924 1053 910 1064 q 945 1025 937 1042 q 952 987 952 1009 q 948 957 952 972 q 938 930 944 942 q 926 908 932 917 q 918 895 921 899 l 914 898 "},"h":{"x_min":27.8125,"x_max":308,"ha":294,"o":"m 27 103 q 29 160 27 120 q 34 261 31 200 q 39 403 37 322 q 41 585 41 484 q 41 681 41 635 q 40 762 40 727 q 39 820 39 798 q 38 844 38 842 q 40 853 38 849 q 47 861 42 857 q 57 867 51 863 q 69 870 63 870 q 80 866 76 870 q 87 854 84 863 q 90 823 89 845 q 92 761 92 800 q 92 661 92 722 q 90 543 92 604 q 83 423 87 482 q 75 309 80 364 q 67 212 71 255 q 61 140 63 168 q 58 103 58 111 q 58 94 58 99 q 59 85 58 90 q 61 78 59 81 q 65 75 62 75 q 79 96 71 75 q 98 155 86 118 q 115 202 105 178 q 135 245 124 225 q 157 276 145 264 q 179 288 168 288 q 192 284 187 288 q 202 272 198 279 q 208 257 206 265 q 212 241 210 248 q 214 217 212 233 q 217 179 215 200 q 220 135 218 158 q 223 91 221 112 q 242 36 227 53 q 280 19 257 19 q 295 21 290 19 q 305 22 301 22 q 307 15 309 22 q 295 6 305 12 q 259 0 285 0 q 223 7 238 0 q 200 29 208 14 q 187 69 191 44 q 181 128 183 94 q 179 169 180 148 q 176 208 178 191 q 169 237 173 226 q 158 248 165 248 q 144 235 151 248 q 129 202 137 221 q 116 165 122 183 q 107 136 110 146 q 99 109 104 128 q 86 70 93 90 q 69 35 78 50 q 51 21 61 21 q 38 30 43 21 q 31 52 33 39 q 28 79 29 65 q 27 103 27 93 "},"0":{"x_min":55.609375,"x_max":620.578125,"ha":648,"o":"m 347 857 q 475 821 423 857 q 559 726 527 785 q 606 590 592 666 q 620 434 620 514 q 614 335 620 389 q 594 228 608 282 q 558 124 581 174 q 503 35 536 74 q 427 -25 471 -2 q 326 -48 383 -48 q 232 -30 273 -48 q 161 19 191 -12 q 111 93 131 50 q 78 184 90 135 q 61 284 66 232 q 55 385 55 335 q 62 494 55 438 q 83 602 68 550 q 120 700 97 654 q 175 781 143 747 q 250 836 208 816 q 347 857 293 857 m 328 812 q 248 795 283 812 q 188 750 214 779 q 144 682 162 721 q 115 600 126 644 q 100 509 105 556 q 95 416 95 461 q 100 335 95 380 q 114 243 104 290 q 143 152 125 196 q 189 73 161 108 q 255 18 217 39 q 344 -2 293 -2 q 426 15 390 -2 q 487 63 461 33 q 530 134 513 94 q 558 221 548 175 q 573 314 569 266 q 577 406 577 362 q 573 486 577 442 q 556 575 568 530 q 526 663 545 620 q 480 739 507 706 q 415 792 453 772 q 328 812 377 812 "},".":{"x_min":55.609375,"x_max":126.15625,"ha":182,"o":"m 94 104 q 118 92 111 104 q 126 63 126 80 q 115 33 126 44 q 88 22 104 22 q 66 31 77 22 q 55 59 55 40 q 66 92 55 81 q 94 104 77 104 "},"@":{"x_min":48.828125,"x_max":848.453125,"ha":897,"o":"m 530 337 q 537 282 530 305 q 559 334 552 307 q 567 383 567 362 q 563 400 567 394 q 556 406 560 406 q 538 386 547 406 q 530 337 530 366 m 625 162 q 565 181 592 162 q 524 237 538 199 q 461 182 497 204 q 383 160 425 160 q 342 170 360 160 q 311 197 324 180 q 292 238 299 215 q 286 287 286 261 q 305 376 286 331 q 358 457 325 421 q 433 515 390 493 q 522 537 476 537 q 578 530 555 537 q 614 512 600 522 q 634 492 628 502 q 640 476 640 482 q 636 467 640 470 q 628 461 633 463 q 617 459 623 459 q 607 458 611 458 q 598 462 602 458 q 590 472 594 466 q 577 485 584 478 q 560 500 570 493 q 536 511 550 506 q 505 515 522 515 q 435 496 467 515 q 380 447 403 476 q 343 384 356 418 q 330 319 330 349 q 336 275 330 295 q 355 241 343 255 q 384 218 367 226 q 421 209 400 209 q 477 222 453 209 q 519 255 501 234 q 514 283 516 267 q 512 316 512 299 q 518 376 512 353 q 531 412 524 398 q 547 429 539 425 q 560 434 555 434 q 576 425 567 434 q 584 393 584 416 q 573 329 584 362 q 543 263 562 295 q 582 219 554 236 q 642 201 609 201 q 717 224 685 201 q 769 282 748 247 q 799 360 789 318 q 809 441 809 402 q 781 566 809 512 q 708 658 753 621 q 605 716 662 696 q 490 735 548 735 q 329 706 403 735 q 201 624 255 676 q 115 501 146 572 q 84 347 84 430 q 109 217 84 278 q 181 109 134 155 q 298 36 228 63 q 457 9 367 9 q 565 19 514 9 q 669 48 616 29 l 673 34 q 623 10 650 22 q 565 -10 596 -1 q 500 -25 534 -19 q 430 -30 466 -30 q 267 -2 338 -30 q 147 74 196 25 q 73 188 99 122 q 48 328 48 253 q 65 445 48 388 q 113 551 82 501 q 187 643 144 601 q 281 714 229 685 q 393 761 333 744 q 515 777 452 777 q 666 750 603 777 q 770 677 729 722 q 829 576 810 632 q 848 461 848 519 q 840 393 848 427 q 819 324 833 358 q 785 262 805 291 q 740 210 765 232 q 686 175 715 188 q 625 162 657 162 "},"f":{"x_min":16.953125,"x_max":276.71875,"ha":229,"o":"m 94 -502 q 61 -494 75 -502 q 36 -463 46 -485 q 22 -405 27 -442 q 16 -312 16 -368 q 16 -100 16 -190 q 17 54 16 -10 q 17 166 17 120 q 17 248 17 212 q 18 313 18 284 q 18 375 18 343 q 22 482 18 426 q 34 591 26 537 q 56 693 43 644 q 89 777 70 741 q 133 835 108 814 q 190 857 158 857 q 214 849 202 857 q 237 825 227 841 q 252 786 246 809 q 258 730 258 762 q 246 617 258 674 q 215 503 234 559 q 173 397 196 448 q 128 304 150 346 q 88 231 107 262 q 61 187 70 201 q 60 182 61 185 q 60 172 60 179 q 60 154 60 166 q 61 124 60 143 q 70 89 63 105 q 87 64 77 74 q 110 48 98 53 q 136 42 123 42 q 184 53 163 42 q 221 82 204 65 q 249 121 237 99 q 271 162 261 142 l 276 160 q 259 119 270 144 q 230 70 248 94 q 189 29 213 46 q 132 12 164 12 q 111 13 122 12 q 88 22 100 15 q 120 -61 105 -20 q 144 -145 134 -102 q 161 -237 155 -189 q 166 -341 166 -284 q 161 -407 166 -377 q 145 -458 155 -436 q 122 -491 136 -479 q 94 -502 109 -502 m 63 379 q 63 337 63 359 q 62 293 63 314 q 61 252 61 271 q 61 218 61 232 q 89 271 72 240 q 123 342 105 303 q 159 424 141 380 q 190 514 176 468 q 212 608 204 560 q 221 701 221 655 q 218 747 221 725 q 209 786 216 769 q 192 812 203 802 q 162 822 181 822 q 128 804 143 822 q 103 756 113 787 q 84 683 92 725 q 72 592 77 641 q 65 488 67 543 q 63 379 63 434 m 139 -318 q 132 -215 139 -264 q 114 -121 125 -166 q 89 -34 103 -76 q 61 48 75 8 l 61 -66 q 60 -164 61 -115 q 61 -259 60 -213 q 63 -343 61 -304 q 68 -412 65 -383 q 78 -458 71 -441 q 94 -474 84 -474 q 112 -466 104 -474 q 127 -441 121 -459 q 135 -393 132 -423 q 139 -318 139 -362 "},";":{"x_min":63.40625,"x_max":141.75,"ha":210,"o":"m 107 104 q 133 89 124 104 q 141 55 141 75 q 140 30 141 45 q 131 -1 138 15 q 111 -35 124 -17 q 73 -71 97 -54 q 67 -74 69 -75 q 63 -72 64 -74 q 63 -67 63 -70 q 66 -63 64 -65 q 85 -44 76 -57 q 100 -16 94 -30 q 106 8 105 -2 q 101 21 107 19 q 77 34 86 24 q 69 59 69 44 q 80 92 69 81 q 107 104 91 104 m 108 298 q 132 286 125 298 q 140 258 140 275 q 129 227 140 238 q 103 216 118 216 q 80 225 91 216 q 69 254 69 234 q 80 287 69 276 q 108 298 91 298 "},"i":{"x_min":21.03125,"x_max":223.8125,"ha":176,"o":"m 46 282 q 56 279 51 282 q 65 272 61 276 q 71 265 69 269 q 73 261 73 261 q 72 253 73 260 q 68 232 70 247 q 64 193 65 217 q 62 133 62 169 q 74 66 62 85 q 103 47 86 47 q 136 57 120 47 q 168 84 153 67 q 196 121 183 100 q 219 162 209 141 l 223 160 q 215 139 221 153 q 202 109 210 125 q 182 75 193 92 q 157 44 171 58 q 125 21 142 30 q 87 12 107 12 q 61 17 73 12 q 40 37 49 23 q 26 77 31 52 q 21 144 21 103 q 22 189 21 165 q 27 234 24 213 q 35 268 30 255 q 46 282 40 282 m 62 450 q 86 438 79 450 q 94 409 94 426 q 83 379 94 389 q 56 368 72 368 q 34 377 45 368 q 23 405 23 385 q 34 438 23 427 q 62 450 45 450 "},"6":{"x_min":46.125,"x_max":694.5,"ha":653,"o":"m 683 744 q 654 776 669 760 q 618 803 638 791 q 570 821 598 814 q 502 828 541 828 q 364 799 425 828 q 258 724 304 771 q 181 616 212 677 q 129 490 149 556 q 100 360 109 425 q 91 240 91 295 q 93 196 91 219 q 99 152 95 174 q 119 203 105 179 q 153 244 132 227 q 200 272 173 262 q 262 283 227 283 q 318 272 290 283 q 366 243 345 262 q 400 197 387 223 q 413 137 413 170 q 400 64 413 98 q 363 5 386 30 q 311 -33 341 -18 q 248 -47 281 -47 q 164 -27 202 -47 q 100 29 126 -6 q 60 114 73 65 q 46 223 46 164 q 60 359 46 286 q 103 505 75 432 q 172 645 131 577 q 266 764 213 712 q 383 846 319 815 q 523 877 448 877 q 589 865 560 877 q 639 834 618 853 q 674 792 661 815 q 694 750 688 770 l 683 744 m 119 88 q 170 18 137 46 q 255 -9 203 -9 q 300 -4 279 -9 q 337 13 321 1 q 361 45 352 25 q 370 94 370 65 q 360 150 370 124 q 331 197 349 177 q 288 228 313 217 q 236 240 264 240 q 182 228 204 240 q 146 198 160 217 q 125 154 132 179 q 119 104 119 130 l 119 88 "},"A":{"x_min":0,"x_max":1055.3125,"ha":1070,"o":"m 8 198 q 20 139 11 170 q 46 84 29 109 q 90 43 63 59 q 156 27 117 27 q 233 42 196 27 q 306 83 270 56 q 375 146 341 109 q 441 226 409 182 q 366 223 404 225 q 290 219 328 221 q 271 217 282 219 q 259 215 261 215 q 252 223 252 215 q 255 233 252 227 q 262 243 257 238 q 274 252 267 248 q 290 255 281 255 q 355 257 309 255 q 465 262 402 259 q 556 414 513 333 q 638 576 600 495 q 712 730 677 656 q 776 861 746 805 q 831 952 806 918 q 877 986 856 986 q 898 977 890 986 q 909 955 906 969 q 914 923 913 941 q 915 886 915 905 q 909 730 915 806 q 894 578 902 653 q 877 428 885 503 q 864 276 868 354 q 900 278 883 278 q 934 278 918 278 l 963 278 q 991 277 979 278 q 1003 269 1003 276 q 995 251 1003 261 q 969 242 987 242 q 914 241 941 241 q 861 241 888 241 q 859 190 859 215 q 859 139 859 164 q 862 95 859 117 q 873 56 865 73 q 896 28 881 39 q 934 16 910 16 q 968 25 951 16 q 999 47 984 33 q 1026 78 1014 61 q 1047 112 1039 95 l 1055 108 q 1035 66 1047 90 q 1007 19 1023 42 q 968 -18 990 -2 q 918 -34 946 -34 q 845 5 867 -34 q 823 124 823 44 q 823 182 823 153 q 826 240 824 210 q 648 235 735 238 q 470 227 560 231 q 395 127 434 173 q 315 46 356 80 q 233 -7 275 12 q 149 -26 191 -26 q 96 -15 118 -26 q 58 14 73 -4 q 32 56 42 33 q 15 105 21 80 q 6 154 9 130 q 0 197 2 178 l 8 198 m 495 263 q 577 266 535 265 q 661 270 619 268 q 746 273 704 271 q 828 276 788 275 q 838 429 832 351 q 850 585 845 507 q 861 739 856 663 q 865 886 865 815 q 865 900 865 891 q 864 916 864 908 q 862 931 863 925 q 858 937 860 937 q 831 907 849 937 q 788 825 813 876 q 731 707 763 774 q 662 564 699 639 q 583 412 625 489 q 495 263 541 334 "},"n":{"x_min":25.09375,"x_max":318.859375,"ha":309,"o":"m 58 302 q 63 297 61 302 q 66 284 65 291 q 67 268 67 276 q 67 252 67 259 q 66 216 67 235 q 64 180 65 198 q 63 148 63 163 q 62 124 62 134 q 63 96 62 107 q 70 86 65 86 q 79 94 73 86 q 91 116 84 103 q 103 143 97 128 q 115 168 109 157 q 130 199 122 182 q 148 232 139 217 q 168 257 158 247 q 190 267 179 267 q 203 263 198 267 q 213 253 209 259 q 220 239 217 246 q 223 226 222 232 q 228 177 225 210 q 234 105 230 143 q 252 50 238 67 q 291 33 267 33 q 306 34 301 33 q 316 35 312 35 q 318 29 320 35 q 315 25 317 27 q 307 20 312 23 q 292 15 301 17 q 270 13 283 13 q 234 20 248 13 q 211 43 220 27 q 198 83 202 59 q 193 143 194 108 q 190 174 191 159 q 187 201 189 189 q 181 220 185 213 q 169 227 177 227 q 154 215 163 227 q 138 186 146 203 q 123 152 130 170 q 111 124 115 134 q 86 72 96 92 q 65 33 76 52 q 57 24 61 27 q 48 21 54 21 q 35 34 40 21 q 28 65 31 48 q 25 101 26 83 q 25 128 25 119 q 25 155 25 139 q 26 185 25 170 q 27 212 27 200 q 27 229 27 225 q 27 240 27 233 q 27 254 27 247 q 26 267 27 261 q 26 275 26 273 q 29 284 26 280 q 35 290 32 288 q 46 297 39 292 q 58 302 54 302 "},"O":{"x_min":52.90625,"x_max":765.03125,"ha":796,"o":"m 408 -2 q 510 16 464 -2 q 591 69 556 36 q 653 146 627 103 q 697 239 680 190 q 722 338 714 288 q 730 434 730 388 q 720 571 730 504 q 694 699 711 638 q 689 702 694 701 q 685 710 685 704 q 688 718 685 713 q 698 729 692 724 q 710 738 704 734 q 722 741 716 741 q 733 729 728 741 q 744 695 739 716 q 752 647 748 674 q 759 593 756 620 q 763 539 762 565 q 765 494 765 514 q 756 381 765 442 q 729 260 748 320 q 682 144 711 200 q 612 45 653 88 q 516 -23 571 2 q 393 -48 462 -48 q 285 -28 333 -48 q 198 27 236 -8 q 133 110 160 62 q 87 214 105 158 q 61 331 69 270 q 52 453 52 392 q 65 588 52 519 q 101 723 77 657 q 161 846 125 788 q 246 947 198 904 q 356 1015 295 990 q 490 1040 417 1040 q 584 1021 544 1040 q 651 973 624 1003 q 690 908 677 944 q 704 837 704 872 q 688 759 704 796 q 636 687 672 722 l 628 698 q 660 753 653 723 q 668 811 668 782 q 652 880 668 847 q 608 939 636 913 q 543 980 580 965 q 465 995 506 995 q 342 972 396 995 q 247 910 288 949 q 176 819 206 870 q 128 710 147 767 q 101 594 109 653 q 92 480 92 535 q 100 378 92 433 q 123 270 107 324 q 164 167 139 217 q 224 80 189 118 q 304 20 259 42 q 408 -2 350 -2 "},"3":{"x_min":27.8125,"x_max":613.796875,"ha":647,"o":"m 113 67 q 134 43 122 56 q 167 16 147 29 q 215 -3 187 4 q 279 -12 242 -12 q 324 -5 303 -12 q 360 14 345 2 q 383 44 375 27 q 392 82 392 61 q 377 140 392 113 q 340 184 363 166 q 289 163 315 170 q 238 156 263 156 q 215 159 226 156 q 194 166 203 161 q 179 178 185 170 q 173 196 173 185 q 181 214 173 206 q 201 226 189 221 q 228 232 213 230 q 257 234 242 234 q 304 227 280 234 q 349 209 328 221 q 429 274 392 232 q 496 368 467 315 q 542 484 525 421 q 559 615 559 548 q 548 683 559 649 q 514 746 537 718 q 455 792 491 774 q 372 809 420 809 q 255 791 312 809 q 151 739 197 772 q 78 659 106 706 q 50 558 50 613 q 54 519 50 536 q 66 489 59 502 q 81 464 73 475 q 95 445 88 453 l 88 438 q 68 460 78 446 q 48 491 57 474 q 33 526 39 507 q 27 565 27 545 q 45 650 27 611 q 92 722 63 690 q 159 779 122 754 q 236 822 197 805 q 314 848 276 839 q 381 857 352 857 q 488 838 444 857 q 560 788 532 820 q 600 713 588 756 q 613 620 613 670 q 593 503 613 564 q 538 385 573 442 q 459 279 504 328 q 366 200 415 231 q 417 146 398 178 q 437 76 437 113 q 427 27 437 50 q 400 -13 418 4 q 358 -40 383 -30 q 301 -50 333 -50 q 228 -37 260 -50 q 172 -7 196 -25 q 133 29 149 10 q 107 61 117 48 l 113 67 m 252 183 q 287 186 270 183 q 322 197 304 189 q 252 218 289 218 q 224 213 237 218 q 210 201 210 209 q 220 188 210 193 q 252 183 229 183 "},"]":{"x_min":153.953125,"x_max":368.28125,"ha":542,"o":"m 161 -153 q 196 -152 173 -152 q 243 -151 219 -152 q 287 -145 267 -149 q 314 -130 307 -141 q 315 -83 314 -120 q 317 8 316 -46 q 318 131 318 63 q 320 276 319 200 q 321 429 321 351 q 321 580 322 507 q 320 718 321 653 q 318 830 320 782 q 314 906 316 878 q 307 934 311 934 q 241 933 276 934 q 155 923 206 931 l 153 937 q 201 948 173 942 q 255 960 228 954 q 304 969 282 965 q 336 972 326 972 q 350 968 345 972 q 359 957 356 963 q 364 943 362 950 q 365 930 365 936 q 366 664 365 796 q 368 400 368 532 q 365 135 368 268 q 356 -132 363 3 q 355 -149 356 -141 q 353 -161 355 -156 q 344 -168 350 -166 q 326 -170 338 -170 l 162 -170 l 161 -153 "},"m":{"x_min":1.359375,"x_max":426.609375,"ha":471,"o":"m 35 347 q 46 351 40 351 q 65 339 58 351 q 71 293 71 326 q 71 264 71 282 q 71 225 71 246 q 71 181 71 204 q 70 140 71 159 q 70 106 70 120 q 70 88 70 92 q 75 73 70 73 q 82 82 78 73 q 92 104 86 90 q 105 134 98 118 q 119 168 111 151 q 141 218 131 195 q 159 259 150 242 q 179 286 168 276 q 204 295 189 295 q 232 277 223 295 q 241 218 241 259 q 241 178 241 202 q 240 133 240 155 q 240 94 240 111 q 240 75 240 78 q 241 66 240 66 q 245 73 242 66 q 253 91 248 80 q 263 118 257 103 q 275 149 269 133 q 296 205 287 181 q 313 246 305 229 q 329 270 321 262 q 348 279 338 279 q 357 278 351 279 q 370 273 364 277 q 382 262 377 269 q 387 242 387 255 q 387 213 387 235 q 389 166 388 191 q 392 117 391 141 q 394 82 393 93 q 400 57 395 66 q 411 42 406 48 q 421 33 417 36 q 426 29 426 31 q 418 22 426 25 q 401 19 409 19 q 364 35 375 19 q 350 80 353 52 q 347 147 347 109 q 344 229 347 185 q 341 240 343 236 q 335 244 340 244 q 324 232 330 244 q 311 203 318 221 q 297 166 304 186 q 283 127 290 145 q 271 95 278 115 q 257 57 265 75 q 240 25 249 38 q 222 12 231 12 q 207 20 212 12 q 202 44 203 27 q 201 88 200 61 q 201 151 201 114 l 201 227 q 197 251 201 246 q 187 255 192 255 q 174 249 179 255 q 161 225 168 242 q 151 202 158 217 q 137 168 145 187 q 120 128 128 149 q 103 89 111 107 q 88 57 94 71 q 79 38 82 43 q 64 23 70 27 q 50 19 58 19 q 43 21 46 19 q 35 27 39 23 q 30 40 32 31 q 27 62 27 48 l 27 294 q 23 313 27 308 q 14 320 19 318 q 5 321 9 321 q 1 324 1 321 q 6 331 1 328 q 17 338 11 335 q 29 344 23 341 q 35 347 34 346 "},"9":{"x_min":63.75,"x_max":590.046875,"ha":632,"o":"m 425 -33 q 425 -2 425 -25 q 425 52 425 19 q 427 125 426 84 q 432 209 429 165 q 438 300 434 254 q 448 392 442 347 q 356 342 408 363 q 241 320 304 320 q 155 337 189 320 q 101 380 121 354 q 72 438 80 406 q 63 503 63 471 q 77 589 63 546 q 114 671 90 632 q 170 744 138 710 q 240 803 202 778 q 319 843 278 828 q 402 857 360 857 q 473 846 443 857 q 522 816 502 835 q 554 772 542 798 q 572 718 566 747 q 560 677 571 689 q 541 665 550 665 q 531 672 533 665 q 520 737 531 710 q 490 780 510 764 q 442 805 470 797 q 379 812 413 812 q 256 784 309 812 q 168 714 204 756 q 115 620 133 671 q 98 524 98 570 q 112 455 98 484 q 149 406 126 425 q 205 378 173 387 q 271 369 236 369 q 374 382 329 369 q 453 417 419 396 q 469 504 459 463 q 492 575 479 545 q 520 623 504 606 q 556 641 537 641 q 579 629 569 641 q 590 598 590 617 q 584 565 590 583 q 571 528 579 547 q 550 491 562 509 q 524 458 538 473 q 510 442 518 451 q 491 425 501 434 q 485 341 487 385 q 481 253 482 297 q 478 166 479 209 q 478 85 478 123 q 478 16 478 48 q 478 -34 478 -14 q 474 -41 478 -38 q 463 -47 470 -44 q 450 -51 457 -50 q 437 -52 443 -52 q 426 -49 430 -52 q 425 -33 423 -46 m 543 604 q 526 593 533 604 q 513 561 518 581 q 502 513 507 541 q 494 453 497 485 q 538 519 523 484 q 552 585 552 554 q 551 597 552 591 q 543 604 549 604 "},"l":{"x_min":-8.140625,"x_max":273.328125,"ha":233,"o":"m 273 147 q 262 121 271 142 q 237 77 253 101 q 199 35 221 54 q 149 16 177 16 q 84 44 113 16 q 34 122 55 71 q 3 244 14 172 q -8 405 -8 316 q -4 508 -8 454 q 6 614 -1 562 q 24 714 13 666 q 51 797 35 761 q 87 854 67 833 q 133 876 108 876 q 188 830 170 876 q 205 690 205 785 q 197 565 205 634 q 169 425 189 497 q 115 270 143 334 q 67 168 87 206 q 84 120 75 141 q 105 82 93 98 q 130 57 116 66 q 160 48 143 48 q 198 61 180 48 q 229 89 215 73 q 253 122 243 105 q 269 149 263 139 l 273 147 m 33 453 q 34 391 33 424 q 40 324 36 358 q 48 257 43 290 q 61 191 53 223 q 94 268 75 221 q 131 374 113 315 q 162 501 149 432 q 174 642 174 569 q 171 727 174 689 q 160 793 167 765 q 141 835 152 820 q 115 851 130 851 q 89 831 101 851 q 68 778 78 811 q 52 704 59 746 q 41 617 46 661 q 35 530 37 573 q 33 453 33 487 "},"8":{"x_min":58.328125,"x_max":636.171875,"ha":639,"o":"m 362 857 q 434 845 404 857 q 486 817 465 833 q 509 809 494 815 q 540 793 523 803 q 573 767 556 783 q 604 730 590 752 q 627 681 618 709 q 636 619 636 654 q 612 505 636 558 q 549 406 588 452 q 463 322 511 360 q 366 252 415 283 q 400 217 385 235 q 427 180 415 199 q 445 139 438 160 q 451 95 451 118 q 440 43 451 68 q 410 0 430 18 q 363 -30 391 -18 q 302 -41 335 -41 q 244 -32 270 -41 q 198 -8 217 -23 q 167 29 178 7 q 156 76 156 50 q 168 130 156 107 q 199 171 179 153 q 245 207 219 190 q 302 241 272 223 q 220 305 263 272 q 141 375 177 337 q 81 458 105 413 q 58 562 58 504 q 82 676 58 623 q 148 770 107 730 q 245 834 189 811 q 362 857 300 857 m 499 743 q 481 763 493 750 q 450 787 469 775 q 407 808 432 799 q 351 816 382 816 q 247 800 294 816 q 166 755 200 785 q 113 682 132 725 q 94 583 94 638 q 119 486 94 529 q 181 406 143 443 q 264 337 219 370 q 348 269 308 303 q 437 332 394 297 q 512 409 480 366 q 564 503 545 451 q 584 617 584 554 q 571 694 584 661 q 537 748 558 727 q 530 739 535 744 q 520 733 525 735 q 509 734 514 732 q 499 743 503 735 m 417 78 q 410 119 417 99 q 390 157 402 139 q 360 192 377 175 q 322 226 342 209 q 271 196 294 210 q 233 165 249 181 q 208 131 217 149 q 200 88 200 113 q 209 49 200 67 q 233 19 218 31 q 267 1 248 7 q 305 -5 286 -5 q 347 0 327 -5 q 383 14 368 4 q 408 40 399 25 q 417 78 417 56 "},"p":{"x_min":-133.609375,"x_max":304.515625,"ha":332,"o":"m 76 409 q 79 396 80 409 q 75 362 78 383 q 70 316 73 341 q 67 267 67 291 q 68 177 67 219 q 71 95 69 135 q 117 163 94 132 q 164 215 141 193 q 212 249 188 237 q 259 261 236 261 q 291 250 278 261 q 304 213 304 240 q 296 175 304 194 q 275 136 288 155 q 245 99 262 117 q 212 64 229 80 q 120 -9 171 26 l 113 -1 q 185 66 153 33 q 212 95 199 80 q 235 126 225 111 q 251 155 245 141 q 258 181 258 169 q 257 192 258 185 q 252 205 256 199 q 240 216 248 212 q 219 221 232 221 q 186 210 204 221 q 150 179 168 199 q 112 130 131 159 q 73 66 92 101 q 80 -27 76 17 q 86 -118 83 -73 q 91 -210 89 -163 q 92 -308 92 -257 q 79 -517 92 -427 q 45 -667 66 -607 q -1 -757 25 -727 q -52 -787 -27 -787 q -82 -775 -67 -787 q -108 -739 -96 -763 q -126 -682 -119 -716 q -133 -604 -133 -648 q -121 -461 -133 -539 q -87 -300 -109 -382 q -35 -135 -65 -217 q 29 16 -5 -54 l 29 84 q 35 225 29 164 q 50 327 42 286 q 66 388 58 368 q 76 409 73 409 m 44 -336 q 43 -236 44 -276 q 39 -163 41 -196 q 34 -97 36 -130 q 30 -21 31 -65 q -17 -146 4 -79 q -57 -284 -40 -212 q -84 -427 -74 -355 q -94 -569 -94 -500 q -91 -628 -94 -596 q -81 -689 -88 -661 q -63 -737 -74 -718 q -34 -756 -52 -756 q -9 -739 -21 -756 q 10 -693 2 -722 q 26 -622 19 -663 q 36 -535 32 -582 q 42 -438 40 -489 q 44 -336 44 -387 "},"4":{"x_min":31.875,"x_max":551.0625,"ha":593,"o":"m 523 184 q 502 185 512 185 q 483 186 493 185 q 464 187 474 187 q 442 189 455 188 l 442 -10 q 437 -27 442 -20 q 424 -39 432 -34 q 409 -47 417 -44 q 397 -50 402 -50 q 388 -43 389 -50 q 387 -27 387 -35 q 389 82 388 27 q 392 190 390 137 l 360 190 q 323 189 346 190 q 273 187 301 189 q 216 185 246 186 q 159 182 187 183 q 109 179 132 181 q 71 177 86 178 q 58 177 65 177 q 45 181 51 178 q 35 189 40 183 q 31 205 31 195 q 46 239 31 212 q 85 305 61 265 q 140 393 109 344 q 206 495 172 442 q 275 600 240 548 q 339 700 309 653 q 393 785 369 747 q 427 845 416 823 q 427 850 427 847 q 429 855 427 853 q 444 866 435 868 q 459 857 453 865 q 469 840 466 849 q 466 828 472 830 q 447 528 451 678 q 442 229 442 378 q 461 228 453 229 q 480 228 470 228 q 502 227 490 227 q 530 226 514 227 q 549 225 546 231 q 549 210 552 219 q 537 192 545 201 q 523 184 529 184 m 392 229 q 398 515 394 376 q 419 787 403 653 q 362 696 396 748 q 290 585 328 643 q 216 468 253 527 q 149 360 179 410 q 100 273 119 310 q 82 222 82 236 q 97 218 82 219 q 138 218 113 217 q 193 220 162 219 q 255 224 224 222 q 313 227 285 225 q 358 229 340 228 l 392 229 "},"R":{"x_min":0,"x_max":861.34375,"ha":882,"o":"m 832 25 q 813 0 828 16 q 778 -32 799 -16 q 731 -61 758 -49 q 674 -73 704 -73 q 602 -52 636 -73 q 537 1 568 -30 q 479 69 506 33 q 426 136 451 106 q 404 133 415 134 q 383 133 394 133 q 347 135 363 133 q 319 144 330 138 q 313 67 316 105 q 305 -10 309 28 q 298 -24 305 -20 q 280 -29 290 -29 q 267 -26 273 -29 q 261 -19 261 -23 q 267 -9 261 -14 q 291 453 282 221 q 307 925 299 686 q 192 875 246 905 q 98 808 139 846 q 34 724 58 769 q 10 628 10 678 q 14 596 10 611 q 23 571 18 582 q 34 552 29 560 q 44 540 40 544 l 35 534 q 26 546 32 538 q 14 568 20 555 q 4 598 8 581 q 0 636 0 615 q 25 747 0 695 q 93 841 50 799 q 192 915 136 883 q 308 969 248 948 q 310 1015 309 992 q 312 1062 311 1039 q 321 1071 312 1068 q 339 1074 330 1074 q 352 1072 346 1074 q 358 1066 358 1070 q 355 1061 358 1064 q 353 1022 354 1041 q 351 983 352 1002 q 515 1007 438 1007 q 648 988 585 1007 q 758 928 710 969 q 833 825 805 888 q 861 674 861 763 q 847 564 861 621 q 807 453 832 507 q 745 349 781 399 q 665 258 709 299 q 571 186 621 217 q 466 143 520 156 q 518 85 493 116 q 571 28 543 54 q 629 -14 598 2 q 697 -31 659 -31 q 738 -26 717 -31 q 776 -12 758 -21 q 808 6 794 -4 q 828 27 822 17 l 832 25 m 349 935 q 340 575 343 755 q 323 206 336 394 q 330 208 326 208 q 340 209 335 209 q 398 196 371 209 q 448 161 424 183 q 550 196 502 171 q 638 256 598 220 q 712 335 679 291 q 767 429 744 379 q 803 531 790 478 q 815 636 815 583 q 798 763 815 704 q 744 864 781 822 q 647 931 706 907 q 501 955 587 955 q 349 935 426 955 m 383 155 q 396 155 389 155 q 408 156 402 155 q 378 182 392 172 q 351 193 364 193 q 331 188 339 193 q 324 176 324 183 q 342 161 324 166 q 383 155 359 155 "},"o":{"x_min":13.5625,"x_max":263.828125,"ha":306,"o":"m 139 42 q 170 49 155 42 q 198 70 186 56 q 218 105 210 84 q 225 152 225 125 q 219 194 225 174 q 203 229 214 215 q 176 253 193 244 q 137 262 160 262 q 106 256 122 262 q 78 238 90 250 q 59 206 66 225 q 51 160 51 187 q 56 117 51 138 q 72 80 62 96 q 100 52 83 63 q 139 42 116 42 m 115 8 q 42 37 70 8 q 13 123 13 67 q 27 193 13 161 q 64 249 42 225 q 115 285 87 272 q 169 298 143 298 q 238 269 212 298 q 263 183 263 240 q 250 113 263 145 q 216 57 237 81 q 168 21 194 34 q 115 8 141 8 "},"5":{"x_min":51.546875,"x_max":400.15625,"ha":407,"o":"m 172 -50 q 117 -44 140 -50 q 80 -30 94 -38 q 58 -13 65 -22 q 51 0 51 -5 q 54 11 51 4 q 62 24 57 18 q 70 34 66 30 q 78 38 75 38 q 83 32 84 38 q 87 19 83 25 q 97 9 90 15 q 116 0 104 4 q 146 -8 128 -5 q 190 -12 164 -12 q 252 -1 226 -12 q 296 27 278 9 q 321 67 313 44 q 330 112 330 89 q 317 166 330 142 q 284 208 305 191 q 238 236 264 226 q 183 245 211 245 q 150 243 165 245 q 123 238 134 242 q 107 195 117 211 q 80 179 97 179 q 63 187 67 179 q 59 201 59 196 q 71 232 59 215 q 107 263 83 250 q 109 301 108 281 q 109 341 109 322 q 109 378 109 361 q 109 406 109 395 q 107 503 109 455 q 102 596 105 551 q 93 680 98 640 q 84 750 89 719 q 75 800 80 780 q 66 828 70 821 q 61 838 61 833 q 65 845 61 844 q 73 849 70 845 q 92 856 78 855 q 127 853 107 856 q 173 845 148 850 q 223 834 198 839 q 272 825 248 829 q 315 822 297 822 q 363 831 344 822 q 392 865 383 840 l 400 864 q 391 828 397 845 q 375 798 385 811 q 350 778 364 786 q 316 771 335 771 q 264 776 287 771 q 220 789 242 782 q 173 802 198 796 q 115 808 148 808 q 124 699 120 746 q 129 616 127 652 q 132 554 131 581 q 133 506 132 528 q 133 467 133 485 q 133 429 133 448 q 132 350 133 391 q 127 273 132 309 q 160 283 142 280 q 200 286 179 286 q 260 276 231 286 q 313 248 290 267 q 349 200 335 229 q 362 133 362 172 q 348 57 362 91 q 309 0 334 23 q 248 -36 284 -23 q 172 -50 213 -50 m 92 208 q 104 231 100 208 q 87 213 87 223 q 92 208 87 208 "}}}
